<?xml version="1.0" encoding="UTF-8"?>
<svg xmlns="http://www.w3.org/2000/svg" id="Layer_1" data-name="Layer 1" viewBox="0 0 163 100">
  <defs>
    <style> .cls-1 { fill: #231f20; } </style>
  </defs>
  <g>
    <path d="M60.41,53.57l-.27.65c-.54.27-1.1.45-1.64.6s-1.1.21-1.7.21c-.71,0-1.37-.06-2.02-.27-.65-.21-1.19-.45-1.64-.77s-.86-.71-1.1-1.1-.54-.86-.65-1.37c-.12-.54-.27-1.04-.27-1.64,0-1.52.54-2.77,1.58-3.75s2.5-1.46,4.25-1.46c.45,0,.86,0,1.19.06.39.06.77.12,1.31.27.54.12.86.21.98.27-.12.27-.21.54-.27.77-.06.39-.12.86-.12,1.37h-.45v-.86c-.06-.45-.33-.77-.77-1.04-.45-.21-1.1-.33-2.02-.33-.65,0-1.25.06-1.7.27-.45.12-.86.39-1.25.77-.33.33-.65.77-.86,1.31s-.33,1.19-.33,2.02c0,1.46.45,2.56,1.31,3.42s2.02,1.31,3.48,1.31c.65,0,1.25-.06,1.79-.27.39-.12.71-.33,1.1-.6l.06.15Z"></path>
    <path d="M60.82,51.61c0-1.04.33-1.9.98-2.56.65-.65,1.52-.98,2.56-.98.98,0,1.79.33,2.44.92.65.6.92,1.46.92,2.44,0,.65-.12,1.31-.45,1.9s-.77.98-1.37,1.31-1.25.45-1.9.45c-.54,0-.98-.06-1.37-.27-.39-.21-.65-.39-.92-.71-.27-.27-.39-.6-.54-.86-.3-.54-.36-1.07-.36-1.64ZM62.13,51.07c0,.6.06,1.19.27,1.79s.45,1.04.86,1.31c.39.27.77.39,1.19.39.54,0,.98-.21,1.37-.65s.54-1.1.54-1.96c0-.71-.12-1.37-.33-1.9-.21-.54-.54-.92-.86-1.19-.33-.21-.71-.33-1.1-.33-.6,0-1.04.21-1.37.65-.39.45-.57.98-.57,1.9Z"></path>
    <path d="M67.75,54.82v-.39h.86c.06,0,.12-.06.21-.06.06,0,.06-.06.06-.12.06-.12.06-.27.06-.54,0-1.25.06-1.9.06-1.96v-2.05c0-.27,0-.45-.06-.54,0-.06-.06-.06-.12-.12-.06,0-.39-.06-.92,0v-.42c.92-.12,1.64-.33,2.11-.54.06-.06.12-.06.21-.06,0,0,.06,0,.06.06v.24c0,.27-.06.71-.06,1.31.21-.27.39-.45.6-.71s.33-.39.39-.45c.12-.12.33-.21.45-.27.21-.06.39-.12.6-.12s.39.06.6.12l.06.12c-.06.65-.12,1.19-.12,1.64h-.39c-.12-.21-.27-.39-.39-.54-.12-.12-.33-.12-.54-.12-.39,0-.65.12-.92.45-.27.33-.39.71-.39,1.31v.71c0,.33,0,.86.06,1.7,0,.27,0,.45.06.54,0,.06.06.12.06.21,0,.06.06.06.12.06.12.06.54.06,1.1.12v.48c-.86,0-1.52-.06-2.11-.06h-1.7Z"></path>
    <path d="M73.35,54.82v-.39h.65c.12,0,.21,0,.21-.06.06,0,.06-.06.12-.12.06-.06.06-.27.12-.54,0-.06,0-.71.06-2.02v-2.11c0-.27-.06-.45-.06-.54,0-.06-.06-.06-.12-.12-.06,0-.39-.06-.92,0v-.39c.92-.12,1.64-.33,2.11-.54.06-.06.12-.06.21-.06q.06,0,.06.06v.24c0,.21,0,.54-.06,1.04l1.31-1.1c.39-.12.71-.21,1.1-.21s.71.06,1.1.27c.33.12.6.33.77.6.21.27.27.54.33.92,0,.21.06.77.06,1.79v1.25c0,.6,0,1.04.06,1.25,0,.12.06.27.12.27.06.06.12.06.21.12h.71v.39c-.45,0-.86-.06-1.19-.06-.27,0-.71,0-1.31.06.06-1.19.12-1.9.12-2.23v-1.19c0-.71,0-1.25-.06-1.46-.06-.33-.27-.6-.54-.77-.27-.21-.65-.27-1.04-.27-.33,0-.65.06-.98.27-.33.21-.54.33-.65.6-.12.21-.21.6-.21,1.1v.86c0,1.25.06,1.9.06,1.96,0,.27.06.39.06.54,0,.06.06.06.06.12.06,0,.06.06.21.06h.77v.39c-.6,0-1.1-.06-1.58-.06-.36.09-1.01.09-1.87.09Z"></path>
    <path d="M87.45,53.75l-.21.54c-.33.21-.6.33-.71.39-.21.12-.45.21-.77.27-.27.06-.6.12-.92.12-.6,0-1.19-.12-1.7-.39-.54-.27-.92-.65-1.19-1.19s-.39-1.1-.39-1.84c0-.54.06-1.04.21-1.46.12-.45.33-.77.54-.98.12-.12.33-.33.65-.54.27-.21.6-.33.86-.45.39-.12.77-.27,1.19-.27.54,0,.98.12,1.46.33.39.27.71.6.92.98s.33.86.33,1.37v.45c-.33.06-.65.12-.92.12-.54.06-.98.06-1.52.06h-2.29c0,.65.12,1.25.33,1.64s.54.71.92.92c.39.21.77.33,1.25.33.27,0,.6-.06.86-.12.27-.06.65-.27,1.04-.54l.06.27ZM82.99,50.86c.12,0,.39,0,.71.06.71,0,1.19.06,1.46.06.65,0,1.04,0,1.25-.06v-.27c0-.71-.12-1.31-.45-1.64s-.71-.54-1.19-.54c-.54,0-.98.21-1.31.6-.33.36-.48.95-.48,1.79Z"></path>
    <path d="M87.78,54.82v-.39h.65c.12,0,.21,0,.27-.06.06,0,.06-.06.12-.12.06-.06.06-.27.06-.54,0-.06,0-.71.06-2.02v-2.95c0-.77,0-1.58-.06-2.44,0-.6-.06-.86-.06-.92s-.06-.06-.12-.12c-.06,0-.39-.06-.98-.06v-.45c1.04-.12,1.79-.33,2.23-.54.06,0,.12-.06.12-.06h.06v.45c0,.86-.06,1.58-.06,2.17v4.82c0,1.25.06,1.9.06,1.96,0,.27,0,.39.06.54,0,.06.06.06.06.12.06,0,.06.06.21.06h.77v.39c-.65-.06-1.19-.06-1.7-.06-.45.15-1.04.21-1.76.21Z"></path>
    <path d="M91.97,54.82v-.39h.65c.12,0,.21,0,.27-.06.06,0,.06-.06.12-.12.06-.06.06-.27.06-.54,0-.06,0-.71.06-2.02v-2.95c0-.77,0-1.58-.06-2.44,0-.6-.06-.86-.06-.92s-.06-.06-.12-.12c-.06,0-.39-.06-.98-.06v-.45c1.04-.12,1.79-.33,2.23-.54.06,0,.12-.06.12-.06h.06v.45c0,.86-.06,1.58-.06,2.17v4.82c0,1.25.06,1.9.06,1.96,0,.27,0,.39.06.54,0,.06.06.06.06.12.06,0,.06.06.21.06h.77v.39c-.65-.06-1.19-.06-1.7-.06-.45.15-1.01.21-1.76.21Z"></path>
    <path d="M98.61,45.24v-.48c.77.06,1.52.06,2.17.06s1.31,0,1.96-.06v.45c-.54,0-.92.06-.98.06-.12.06-.21.06-.27.21-.06.06-.12.33-.12.65v4.64c0,.98.06,1.7.21,1.96.12.33.33.6.6.77.21.12.54.27.86.39.39.06.77.12,1.25.12.54,0,.98-.06,1.37-.21.39-.12.71-.27.92-.45.21-.21.33-.39.45-.65s.21-.54.21-.92c.06-.39.06-.92.06-1.52v-4.08c0-.45-.06-.71-.06-.77-.06-.06-.12-.12-.27-.21-.12-.06-.45-.06-.98-.06v-.39c.77.06,1.31.06,1.7.06.33,0,.92,0,1.79-.06v.45c-.6,0-.92.06-1.04.06-.12.06-.21.06-.27.21-.06.06-.06.33-.12.65v4.37c0,1.19-.06,1.96-.27,2.44-.12.45-.45.86-.92,1.25-.33.27-.71.45-1.25.6-.54.12-1.04.21-1.7.21-.71,0-1.37-.06-1.9-.27-.54-.21-.92-.39-1.19-.65-.27-.27-.45-.6-.6-.86-.12-.39-.21-1.04-.21-1.96v-4.97c0-.45-.06-.71-.12-.77-.06-.06-.12-.12-.27-.21-.15,0-.48,0-1.01-.06Z"></path>
    <path d="M108.52,54.82v-.39h.65c.12,0,.21,0,.21-.06.06,0,.06-.06.12-.12.06-.06.06-.27.12-.54,0-.06,0-.71.06-2.02v-2.11c0-.27-.06-.45-.06-.54,0-.06-.06-.06-.12-.12-.06,0-.39-.06-.92,0v-.39c.92-.12,1.64-.33,2.11-.54.06-.06.12-.06.21-.06q.06,0,.06.06v.24c0,.21,0,.54-.06,1.04l1.31-1.1c.39-.12.71-.21,1.1-.21s.71.06,1.1.27c.33.12.6.33.77.6.21.27.27.54.33.92,0,.21.06.77.06,1.79v1.25c0,.6,0,1.04.06,1.25,0,.12.06.27.12.27.06.06.12.06.21.12h.71v.39c-.45,0-.86-.06-1.19-.06-.27,0-.71,0-1.31.06.06-1.19.12-1.9.12-2.23v-1.19c0-.71,0-1.25-.06-1.46-.06-.33-.27-.6-.54-.77-.27-.21-.65-.27-1.04-.27-.33,0-.65.06-.98.27-.27.21-.54.33-.65.6-.12.21-.21.6-.21,1.1v.86c0,1.25.06,1.9.06,1.96,0,.27.06.39.06.54,0,.06.06.06.06.12.06,0,.06.06.21.06h.77v.39c-.6,0-1.1-.06-1.58-.06-.36.09-1.01.09-1.87.09Z"></path>
    <path d="M117.05,49.05v-.42c.92-.12,1.7-.33,2.29-.6l.12.12c-.06.98-.06,1.79-.06,2.29v1.31c0,1.25.06,1.9.06,1.96,0,.27,0,.39.06.54,0,.06.06.06.06.12.06,0,.06.06.21.06h.77v.45c-.71,0-1.31-.06-1.7-.06s-.98,0-1.84.06v-.39h.65c.12,0,.21,0,.21-.06.06,0,.06-.06.12-.12.06-.06.06-.27.12-.54,0-.06,0-.71.06-2.02v-1.25c0-.71,0-1.1-.06-1.25,0-.06-.06-.12-.12-.12-.09-.09-.42-.09-.95-.09ZM118.75,44.91c.21,0,.39.06.6.27.12.12.21.33.21.6,0,.21-.06.39-.27.54-.21.12-.33.27-.54.27s-.39-.06-.6-.27-.27-.33-.27-.54.06-.39.27-.6c.21-.21.33-.27.6-.27Z"></path>
    <path d="M123.81,54.88c-.21-.45-.33-.77-.39-.98l-.6-1.37-1.46-3.33c-.06-.21-.21-.33-.27-.39s-.12-.12-.21-.12c-.06,0-.27,0-.54-.06v-.39c.77,0,1.37.06,1.7.06.39,0,.92,0,1.64-.06v.39c-.54,0-.77.06-.92.12s-.12.12-.12.21c0,.12.06.45.27.92l.86,2.17.21.45c.27.6.39.92.45,1.1l.71-1.58c.06-.06.27-.6.65-1.58.21-.6.39-.98.45-1.31v-.21c0-.06,0-.12-.06-.21-.12-.06-.39-.12-.92-.12v-.39c.71,0,1.19.06,1.37.06.21,0,.6,0,1.37-.06v.39c-.27,0-.45.06-.6.12-.06.06-.21.21-.27.33-.06.12-.33.6-.77,1.52l-.65,1.46c-.12.27-.54,1.25-1.25,2.89.06-.03-.65-.03-.65-.03Z"></path>
    <path d="M133.92,53.75l-.21.54c-.33.21-.6.33-.71.39-.21.12-.45.21-.77.27-.27.06-.6.12-.92.12-.6,0-1.19-.12-1.7-.39s-.92-.65-1.19-1.19-.39-1.1-.39-1.84c0-.54.06-1.04.21-1.46.12-.45.33-.77.54-.98.12-.12.33-.33.65-.54.27-.21.6-.33.86-.45.39-.12.77-.27,1.19-.27.54,0,.98.12,1.46.33.39.27.71.6.92.98s.33.86.33,1.37v.45c-.33.06-.65.12-.92.12-.54.06-.98.06-1.52.06h-2.29c0,.65.12,1.25.33,1.64s.54.71.92.92c.39.21.77.33,1.25.33.27,0,.6-.06.86-.12.27-.06.65-.27,1.04-.54l.06.27ZM129.4,50.86c.12,0,.39,0,.71.06.71,0,1.19.06,1.46.06.65,0,1.04,0,1.25-.06v-.27c0-.71-.12-1.31-.45-1.64s-.71-.54-1.19-.54c-.54,0-.98.21-1.31.6-.36.36-.48.95-.48,1.79Z"></path>
    <path d="M134.52,54.82v-.39h.86c.09,0,.12-.06.21-.06s.06-.06.06-.12c.06-.12.06-.27.06-.54,0-1.25.06-1.9.06-1.96v-2.05c0-.27,0-.45-.06-.54,0-.06-.06-.06-.12-.12-.06,0-.39-.06-.92,0v-.42c.92-.12,1.64-.33,2.11-.54.06-.06.12-.06.21-.06s.06,0,.06.06v.24c0,.27-.06.71-.06,1.31.21-.27.39-.45.6-.71s.33-.39.39-.45c.12-.12.33-.21.45-.27.21-.06.39-.12.6-.12s.39.06.6.12l.06.12c-.06.65-.12,1.19-.12,1.64h-.33c-.12-.21-.27-.39-.39-.54-.12-.12-.33-.12-.54-.12-.39,0-.65.12-.92.45s-.39.71-.39,1.31v.71c0,.33,0,.86.06,1.7,0,.27,0,.45.06.54.06.06.06.12.06.21,0,.06.06.06.12.06.12.06.54.06,1.1.12v.48c-.86,0-1.52-.06-2.11-.06h-1.76Z"></path>
    <path d="M140.23,52.71h.39c0,.27,0,.45.06.65s.06.33.12.45c.06.12.12.27.27.39.12.12.27.21.39.27s.27.06.39.12h.65c.45,0,.86-.12,1.19-.39s.45-.6.45-1.04c0-.21-.06-.39-.12-.54-.06-.12-.27-.27-.39-.33-.21-.06-.6-.21-1.19-.33s-.98-.27-1.19-.33c-.27-.12-.45-.21-.65-.33s-.27-.33-.39-.54c-.06-.21-.12-.45-.12-.71,0-.39.06-.71.27-1.04.21-.33.54-.6.92-.77.39-.21.86-.27,1.37-.27.33,0,.65.06,1.04.12s.71.21.98.33c0,.54-.06,1.04-.06,1.58h-.39c0-.33-.06-.6-.06-.65,0-.12-.06-.21-.12-.27s-.12-.21-.27-.27-.27-.21-.45-.27c-.21-.06-.45-.12-.71-.12-.39,0-.71.12-.98.39s-.39.54-.39.86c0,.21.06.33.12.45.06.12.21.27.27.33.12.06.27.12.54.21l1.19.27c.6.12.98.27,1.25.39.21.12.39.27.54.54.12.21.21.54.21.86,0,.65-.27,1.19-.77,1.64-.54.45-1.25.71-2.11.71-.39,0-.92-.06-1.64-.21-.39-.06-.6-.12-.6-.12v-.18c.06-.21.06-.39.06-.6-.06-.21-.06-.65-.06-1.25Z"></path>
    <path d="M145.85,49.05v-.42c.92-.12,1.7-.33,2.29-.6l.12.12c-.06.98-.06,1.79-.06,2.29v1.31c0,1.25.06,1.9.06,1.96,0,.27,0,.39.06.54,0,.06.06.06.06.12.06,0,.06.06.21.06h.77v.45c-.71,0-1.31-.06-1.7-.06s-.98,0-1.84.06v-.39h.65c.12,0,.21,0,.21-.06.06,0,.06-.06.12-.12.06-.06.06-.27.12-.54,0-.06,0-.71.06-2.02v-1.25c0-.71,0-1.1-.06-1.25,0-.06-.06-.12-.12-.12-.09-.09-.36-.09-.95-.09ZM147.58,44.91c.21,0,.39.06.6.27.12.12.21.33.21.6,0,.21-.06.39-.27.54s-.33.27-.54.27-.39-.06-.6-.27-.27-.33-.27-.54.06-.39.27-.6.39-.27.6-.27Z"></path>
    <path d="M149.72,49.29v-.33c.45-.21.86-.33,1.1-.45,0-1.1,0-1.84-.06-2.17.45-.21.86-.33,1.19-.54l.21.12c-.06.39-.12,1.25-.21,2.56h1.9l.06.06-.12.65h-1.81l-.06,2.89v1.25c0,.15.06.27.12.33.06.12.12.21.27.27.12.06.27.12.54.12h.45c.12,0,.27-.06.45-.12l.06.27c-.21.21-.45.33-.65.54-.21.06-.33.12-.54.12h-.54c-.27,0-.45,0-.6-.06-.12-.06-.27-.12-.39-.27s-.21-.21-.33-.39c-.12-.21-.12-.39-.12-.71v-4.2h-.27c-.06,0-.33.06-.65.06Z"></path>
    <path d="M154.45,58.63l.33-1.1h.21c.06.06.21.12.21.21.06.06.12.06.21.12.06,0,.21.06.33.06s.27,0,.39-.06c.12-.06.27-.12.39-.33.12-.12.27-.39.39-.71.27-.54.45-.98.65-1.52-.12-.39-.33-.92-.54-1.46l-1.1-2.77c-.33-.86-.6-1.46-.77-1.9-.06-.21-.21-.27-.27-.33s-.33-.12-.65-.12v-.39c.6,0,1.19.06,1.7.06s1.1,0,1.58-.06v.27c-.45,0-.77.06-.86.06-.12.06-.21.12-.21.27,0,.06.06.27.12.45.21.6.33,1.04.54,1.52l.45,1.1c.27.65.54,1.19.65,1.58l.39-.86c.12-.33.39-.98.77-1.9s.6-1.52.65-1.7v-.21c0-.06-.06-.12-.12-.21-.06-.06-.33-.06-.86-.12v-.45c.54,0,1.04.06,1.46.06.39,0,.86,0,1.25-.06l-.06.45c-.27,0-.39.06-.54.12-.12.06-.33.39-.6.92s-.77,1.58-1.52,3.15l-1.64,3.81c-.27.6-.45,1.04-.65,1.31s-.39.45-.71.6c-.27.12-.6.21-.86.21-.12,0-.27,0-.39-.06-.03.12-.15.06-.3,0Z"></path>
  </g>
  <g>
    <g>
      <g>
        <path class="cls-1" d="M4.41,50.15c.86,0,1.37-.54,1.43-1.52,0-.18,0-.42-.03-.65v-.06h-.71l.06.15c.03.12.06.33.06.54-.03.48-.42.8-.92.74-.54-.03-.86-.39-.86-.86,0-.18.03-.33.18-.51l.12-.12-.68-.12-.03.06c-.12.21-.15.45-.18.65-.06.98.48,1.64,1.49,1.67.03.03.06.03.09.03Z"></path>
        <path class="cls-1" d="M4.53,46.82c.21.06.39.06.54.06.65,0,1.13-.39,1.34-1.01.12-.42.06-.74-.12-1.1-.21-.33-.54-.57-.98-.71-.18-.06-.39-.06-.51-.06-.65,0-1.13.39-1.34,1.01-.24.86.18,1.52,1.07,1.81ZM4.08,45.21c.12-.39.42-.45.65-.45.12,0,.24.03.39.06.3.12.54.24.65.45.06.15.12.27.03.45-.12.39-.42.45-.65.45-.15,0-.24-.03-.39-.06-.42-.15-.83-.45-.68-.89Z"></path>
        <path class="cls-1" d="M7.51,42.98l-.98-.54.03-.06c.12-.18.18-.18.3-.15l.98.15.39-.71-1.31-.15h-.24c0-.27-.15-.54-.42-.68-.15-.06-.27-.12-.42-.12-.48,0-.71.48-.95.92l-.36.65,2.59,1.4.39-.71ZM5.96,42.06l-.03.06-.48-.24.03-.06c.12-.21.24-.42.45-.3.06.03.12.06.15.15,0,.12-.06.27-.12.39Z"></path>
        <polygon class="cls-1" points="9.11 40.39 7.77 39.29 9.68 39.74 10.18 39.08 7.92 37.18 7.45 37.74 8.81 38.87 6.91 38.43 6.38 39.08 8.64 40.96 9.11 40.39"></polygon>
        <polygon class="cls-1" points="12.41 37.18 12 36.73 11.19 37.36 10.81 36.94 11.55 36.31 11.17 35.84 10.39 36.43 10.12 36.08 10.96 35.42 10.54 34.92 9.14 36.05 10.99 38.34 12.41 37.18"></polygon>
        <polygon class="cls-1" points="14.85 35.72 14.53 35.18 13.6 35.69 12.47 33.67 11.82 34.05 13.28 36.61 14.85 35.72"></polygon>
        <polygon class="cls-1" points="17.32 34.77 17.12 34.2 16.13 34.53 15.36 32.39 14.65 32.62 15.63 35.39 17.32 34.77"></polygon>
        <path class="cls-1" d="M20.33,34.29h.18c.42-.03.71-.18.89-.39s.24-.51.21-.86l-.15-1.84-.77.03.15,1.67c.03.57-.21.68-.42.71h-.06c-.18,0-.42-.06-.48-.65l-.15-1.67-.74.09.15,1.84c.12.68.51,1.07,1.19,1.07Z"></path>
        <polygon class="cls-1" points="23.69 32.54 24.32 34.35 25.18 34.5 25.54 31.55 24.82 31.46 24.58 33.19 23.99 31.35 23.16 31.26 22.74 34.17 23.45 34.26 23.69 32.54"></polygon>
        <polygon class="cls-1" points="27.77 32.21 27.05 31.97 26.16 34.77 26.87 35 27.77 32.21"></polygon>
        <polygon class="cls-1" points="31.46 33.84 30.8 33.52 29.37 34.98 29.67 32.95 28.96 32.57 28.54 35.69 29.28 36.05 31.46 33.84"></polygon>
        <polygon class="cls-1" points="32.2 38.1 32.59 37.59 31.78 36.94 32.11 36.46 32.85 37.06 33.27 36.55 32.53 35.96 32.8 35.6 33.6 36.25 34.04 35.72 32.59 34.62 30.77 36.97 32.2 38.1"></polygon>
        <path class="cls-1" d="M33.45,39.32l.86-.74.03.06c.12.15.12.18.03.33l-.48.89.54.62.57-1.16s.06-.15.06-.24c.24.12.54.06.8-.15.65-.54.15-1.13-.24-1.58l-.48-.54-2.23,1.93.54.57ZM35.21,37.77l.03.06c.12.15.21.27.21.39,0,.06-.03.12-.12.15-.03.06-.12.06-.15.06-.15,0-.27-.15-.33-.24l-.03-.06.39-.36Z"></path>
        <path class="cls-1" d="M36.19,41.67c-.15.12-.33-.06-.42-.21-.12-.18-.15-.33-.15-.57v-.18l-.68.3.03.18c.06.24.12.39.24.62.24.42.54.62.89.62.18,0,.3-.03.48-.15.51-.3.45-.8.39-1.16-.03-.24-.06-.42.03-.48.06-.03.12-.03.15-.03.15,0,.24.15.27.18.12.15.15.3.18.48l.03.15.62-.27v-.06c-.03-.21-.15-.42-.27-.65-.3-.54-.86-.71-1.34-.42-.51.3-.45.8-.39,1.13.03.27.06.45-.06.51Z"></path>
        <rect class="cls-1" x="36.27" y="43.07" width="2.95" height=".74" transform="translate(-13.61 17.47) rotate(-22.19)"></rect>
        <polygon class="cls-1" points="39.25 45.33 37.02 45.89 37.2 46.61 39.46 46.04 39.64 46.82 40.26 46.67 39.7 44.41 39.07 44.59 39.25 45.33"></polygon>
        <polygon class="cls-1" points="37.53 48.75 37.56 49.52 38.72 49.43 40.56 50.42 40.5 49.58 39.43 49.08 40.44 48.42 40.38 47.53 38.69 48.72 37.53 48.75"></polygon>
        <polygon class="cls-1" points="5.01 55.65 5.63 55.47 5.36 54.61 5.81 54.46 6.08 55.41 6.7 55.24 6.23 53.57 3.4 54.4 3.61 55.12 4.77 54.76 5.01 55.65"></polygon>
        <path class="cls-1" d="M7.62,58.12c.12-.33.06-.71-.12-1.1-.27-.54-.68-.83-1.22-.83-.24,0-.51.06-.8.21-.45.21-.71.51-.86.89-.12.33-.06.71.12,1.1.27.51.68.83,1.22.83.24,0,.51-.06.8-.21.45-.24.77-.51.86-.89ZM6.46,58.3c-.18.12-.36.15-.54.15-.27,0-.45-.12-.54-.33-.06-.18-.12-.3-.03-.45.06-.21.27-.42.54-.54.18-.06.33-.15.51-.15.27,0,.45.12.54.33.06.18.12.3.03.45-.06.21-.24.39-.51.54Z"></path>
        <path class="cls-1" d="M9.68,60.41l-1.34,1.07c-.33.27-.62.3-.83.06-.06-.12-.12-.21-.12-.3.03-.15.15-.3.33-.48l1.34-1.07-.48-.57-1.49,1.16c-.3.24-.48.51-.48.83,0,.27.12.54.33.86.27.39.57.54.92.54.24,0,.48-.12.71-.3l1.49-1.19-.39-.62Z"></path>
        <polygon class="cls-1" points="12.18 62.82 11.08 64.16 11.49 62.26 10.84 61.72 8.96 64.01 9.56 64.49 10.63 63.12 10.24 65.02 10.87 65.59 12.74 63.3 12.18 62.82"></polygon>
        <path class="cls-1" d="M14.38,64.22l-.74-.39-1.34,2.62.74.39c.39.18.68.27.98.27.51,0,.92-.27,1.19-.83.45-.86.15-1.55-.83-2.05ZM14.5,65.98c-.15.3-.42.48-.71.48-.15,0-.24-.03-.39-.12l-.18-.12.74-1.52.18.12c.21.12.33.27.42.45.09.24.03.45-.06.71Z"></path>
        <polygon class="cls-1" points="16.01 68.12 17.77 68.6 17.92 67.97 16.91 67.7 17.03 67.17 17.98 67.41 18.16 66.78 17.2 66.54 17.29 66.07 18.37 66.33 18.51 65.71 16.76 65.29 16.01 68.12"></polygon>
        <path class="cls-1" d="M20.36,65.98l-.86-.03-.18,2.95.86.03h.21c.98,0,1.52-.48,1.58-1.4.03-.45-.06-.83-.3-1.1-.3-.27-.71-.42-1.31-.45ZM20.33,68.27h-.21l.12-1.67h.21c.42.03.8.33.74.89s-.48.77-.86.77Z"></path>
        <path class="cls-1" d="M24.55,65.71l-.51,3.09.8-.18.12-.65.95-.21.39.57.83-.18-1.76-2.62-.83.18ZM25.03,67.38l.12-.8.42.65-.54.15Z"></path>
        <polygon class="cls-1" points="27.35 67.26 27.62 67.97 28.3 67.7 28.06 67.02 27.35 67.26"></polygon>
        <path class="cls-1" d="M28.81,64.28l-.74.42,1.4,2.59.74-.42c.98-.54,1.22-1.22.8-2.08-.48-.86-1.22-1.04-2.2-.51ZM30,66.27l-.18.12-.8-1.49.18-.12c.12-.06.24-.12.39-.12.3,0,.54.18.71.45.3.51.03.95-.3,1.16Z"></path>
        <polygon class="cls-1" points="31.58 65.2 31.99 65.83 32.59 65.38 32.17 64.76 31.58 65.2"></polygon>
        <polygon class="cls-1" points="32.74 61.4 32.59 62.59 33.24 62.67 33.33 62.2 34.73 63.6 35.26 63.09 33.18 60.95 32.74 61.4"></polygon>
        <path class="cls-1" d="M36.72,59.88c-.24-.18-.51-.21-.83-.12,0-.27-.15-.54-.33-.68-.39-.27-.86-.12-1.22.39-.33.48-.3.95.12,1.25.21.15.48.18.71.12-.03.3.06.54.3.71.18.15.33.18.51.18.3,0,.57-.18.86-.51.21-.27.3-.54.27-.83-.03-.18-.18-.33-.39-.51ZM35.32,60.09c-.12.06-.21.15-.3.15-.03,0-.12,0-.15-.03-.15-.12-.06-.27,0-.39.03-.06.12-.12.18-.12.03,0,.12.03.18.06.09.09.15.21.09.33ZM36.34,60.89c-.12.15-.27.18-.42.06-.12-.12-.18-.21-.15-.42.21-.15.39-.18.51-.06.06.03.12.12.12.18s0,.18-.06.24Z"></path>
        <path class="cls-1" d="M38.06,56.99c-.51-.24-.98-.12-1.22.39-.06.15-.12.27-.06.42-.18-.15-.33-.39-.21-.68.06-.15.18-.24.27-.33l.12-.06-.54-.39-.06.06c-.15.15-.27.3-.39.51-.15.3-.18.57-.06.86.18.48.65.83,1.01.98.33.18.62.24.86.24.39,0,.65-.18.86-.54.24-.62.03-1.13-.6-1.46ZM38.06,58.09c-.03.12-.15.15-.24.15-.06,0-.18-.03-.24-.06-.15-.06-.24-.18-.27-.24-.03-.06,0-.12,0-.18.03-.12.12-.15.24-.15.06,0,.18.03.27.06.15.06.21.15.24.24.03.09,0,.15,0,.18Z"></path>
        <path class="cls-1" d="M39.13,53.99c-.57-.18-1.07.12-1.22.65,0,.06-.03.12-.03.15l-.33-.12.3-1.01-.57-.18-.51,1.7,1.64.51v-.15c0-.18.03-.3.06-.48.03-.15.21-.48.51-.42.33.12.27.48.24.57-.06.21-.18.33-.27.48l-.12.12.68.24.03-.06c.12-.21.21-.45.27-.62.12-.33.12-.65-.03-.92-.15-.18-.39-.36-.65-.45Z"></path>
      </g>
      <path class="cls-1" d="M17.5,46.85l-.15-.09c-.83-.45-2.23-1.28-2.23-1.9v-3.24h4.85v3.27c0,.54-1.28,1.31-2.32,1.87l-.15.09ZM15.72,43.72v1.16c.06.21.86.8,1.79,1.28.95-.51,1.79-1.07,1.87-1.28v-1.16h-3.66ZM15.72,43.13h3.66v-.92h-3.66v.92Z"></path>
      <path class="cls-1" d="M21.7,70.41c-11.25,0-20.41-9.16-20.41-20.41s9.13-20.41,20.41-20.41,20.41,9.16,20.41,20.41-9.16,20.41-20.41,20.41ZM21.7,30.18c-10.95,0-19.82,8.9-19.82,19.82s8.9,19.82,19.82,19.82,19.82-8.9,19.82-19.82-8.9-19.82-19.82-19.82Z"></path>
      <path class="cls-1" d="M21.7,64.91c-8.21,0-14.91-6.69-14.91-14.91s6.69-14.91,14.91-14.91,14.91,6.69,14.91,14.91-6.69,14.91-14.91,14.91ZM21.7,35.69c-7.88,0-14.31,6.43-14.31,14.31s6.43,14.31,14.31,14.31,14.31-6.43,14.31-14.31-6.43-14.31-14.31-14.31Z"></path>
      <path class="cls-1" d="M25.86,46.85l-.15-.09c-.86-.45-2.29-1.28-2.29-1.9v-3.24h4.85v3.27c0,.45-.77,1.07-2.29,1.87l-.12.09ZM24.02,44.85c.09.21.89.8,1.84,1.31.92-.51,1.73-1.07,1.84-1.28v-.42l-1.84-1.19-1.84,1.19v.39ZM27.68,44.88h0ZM25.86,42.56l1.84,1.19v-1.55h-3.66v1.55l1.81-1.19Z"></path>
      <rect class="cls-1" x="18.57" y="51.64" width="2.05" height=".68" transform="translate(-2.34 .95) rotate(-2.61)"></rect>
      <rect class="cls-1" x="18.57" y="53.54" width="2.05" height=".68" transform="translate(-2.42 .94) rotate(-2.6)"></rect>
      <rect class="cls-1" x="18.57" y="55.42" width="2.05" height=".68" transform="translate(-2.5 .94) rotate(-2.6)"></rect>
      <rect class="cls-1" x="16.22" y="51.99" width="1.16" height=".95"></rect>
      <rect class="cls-1" x="16.22" y="54.7" width="1.16" height=".95"></rect>
      <path class="cls-1" d="M21.4,57.68s-.42-.3-.65-.27c-1.22.21-3.21.15-3.3.15h-.3v-7.35l.33.03s1.58.18,2.98-.09c.48-.12.98,0,1.22.09.24-.09.8-.21,1.28-.09,1.4.24,2.95.09,2.98.09l.33-.03v7.35h-.3c-.09,0-2.14.06-3.36-.15-.27-.06-.6.21-.68.27l-.24.18-.27-.18ZM20.89,56.81c.33-.03.6.15.77.27.21-.15.65-.33,1.07-.27.89.15,2.32.15,2.95.15v-6.1c-.57.06-1.7.09-2.83-.12h-.03c-.45-.12-1.01.09-1.01.09l-.15.03h-.03s-.57-.24-1.01-.12h-.03c-1.1.21-2.26.15-2.83.12v6.13c.6,0,2.02,0,2.95-.15q.09-.03.18-.03Z"></path>
      <rect class="cls-1" x="23.5" y="52.85" width=".68" height="2.05" transform="translate(-31.06 75.25) rotate(-87.4)"></rect>
      <rect class="cls-1" x="23.49" y="54.73" width=".68" height="2.05" transform="translate(-32.95 77.03) rotate(-87.4)"></rect>
      <rect class="cls-1" x="26.07" y="51.99" width="1.1" height=".95"></rect>
      <rect class="cls-1" x="26.07" y="54.7" width="1.1" height=".95"></rect>
      <rect class="cls-1" x="23.48" y="51.01" width=".68" height="2.05" transform="translate(-29.07 73.87) rotate(-87.83)"></rect>
    </g>
    <path class="cls-1" d="M21.67,63.6l-.12-.06c-.09-.06-2.32-1.04-4.58-2.8-3.03-2.35-4.7-4.94-4.73-7.5.12-5.44.03-12.67.03-12.76v-.3h18.95v.3c0,.09-.03,7.41-.03,12.76,0,2.56-1.64,5.12-4.73,7.5-2.29,1.76-4.58,2.77-4.67,2.8l-.12.06ZM21.97,48.19v14.61c1.79-.86,8.6-4.55,8.6-9.55v-5.06h-8.6ZM12.86,48.19c0,1.7-.03,3.45-.06,5.06.06,2.95,2.5,5.44,4.52,7.02,1.64,1.28,3.3,2.17,4.05,2.53v-14.61h-8.51ZM12.86,47.62h17.7c0-3.12.03-5.92.03-6.81H12.8c.03.86.06,3.66.06,6.81Z"></path>
  </g>
</svg>
