<?xml version="1.0" encoding="UTF-8"?>
<svg xmlns="http://www.w3.org/2000/svg" id="Layer_1" viewBox="0 0 163 100">
  <defs>
    <style> .cls-1 { fill: #e21836; } .cls-2 { fill: #fff; } </style>
  </defs>
  <g>
    <path d="M19.39,71.72h-1.86v-6.49h1.89c1.46,0,2.16.66,2.16,1.68,0,.68-.38,1.12-.94,1.36.72.23,1.2.7,1.2,1.56,0,1.28-.92,1.89-2.45,1.89ZM19.36,66.18h-.63v1.72h.57c.73,0,1.12-.33,1.12-.88,0-.52-.31-.84-1.06-.84ZM19.38,68.79h-.65v1.99h.67c.79,0,1.25-.33,1.25-.98s-.44-1.01-1.27-1.01Z"></path>
    <path d="M24.64,71.82c-1.23,0-2.13-.88-2.13-2.36s.9-2.37,2.14-2.37,2.15.89,2.15,2.37-.91,2.36-2.16,2.36ZM24.64,68.02c-.67,0-1.03.59-1.03,1.44s.37,1.44,1.03,1.44c.7,0,1.05-.59,1.05-1.44s-.38-1.44-1.05-1.44Z"></path>
    <path d="M29.31,71.81c-.66,0-1.34-.21-1.77-.44l.15-.94c.49.32,1.09.54,1.66.54.49,0,.75-.18.75-.47,0-.32-.2-.45-.92-.63-1.1-.28-1.56-.6-1.56-1.43,0-.78.62-1.34,1.68-1.34.59,0,1.14.11,1.59.32l-.15.94c-.45-.25-.99-.41-1.44-.41-.42,0-.63.16-.63.41s.17.38.85.56c1.18.3,1.64.62,1.64,1.48s-.64,1.42-1.84,1.42Z"></path>
    <path d="M33.89,71.8c-.89,0-1.5-.33-1.5-1.36v-2.33h-.64v-.92h.64v-1.44l1.11-.17v1.61h.93l.14.92h-1.07v2.15c0,.37.17.56.6.56.13,0,.25,0,.36-.04l.14.95c-.18.04-.39.08-.72.08Z"></path>
    <path d="M37.49,71.82c-1.23,0-2.13-.88-2.13-2.36s.9-2.37,2.14-2.37,2.15.89,2.15,2.37-.91,2.36-2.16,2.36ZM37.49,68.02c-.67,0-1.03.59-1.03,1.44s.37,1.44,1.03,1.44c.7,0,1.05-.59,1.05-1.44s-.38-1.44-1.05-1.44Z"></path>
    <path d="M43.31,71.72v-2.97c0-.4-.17-.67-.58-.67-.36,0-.71.23-1.04.57v3.07h-1.13v-4.55h.96l.1.64c.42-.4.9-.73,1.52-.73.85,0,1.3.52,1.3,1.36v3.28h-1.13Z"></path>
    <path d="M50.23,71.84c-1.57,0-2.6-.93-2.6-2.63v-3.98h1.24v3.91c0,.99.45,1.61,1.36,1.61s1.38-.58,1.38-1.58v-3.94h1.25v3.95c0,1.72-1.07,2.65-2.64,2.65Z"></path>
    <path d="M56.99,71.72v-2.97c0-.4-.17-.67-.58-.67-.36,0-.71.23-1.04.57v3.07h-1.13v-4.55h.96l.1.64c.42-.4.9-.73,1.52-.73.85,0,1.3.52,1.3,1.36v3.28h-1.13Z"></path>
    <path d="M59.92,66.42c-.38,0-.68-.26-.68-.64s.3-.66.68-.66.67.27.67.66-.3.64-.67.64ZM59.34,71.72v-4.55h1.13v4.55h-1.13Z"></path>
    <path d="M63.94,71.74h-1.1l-1.59-4.48,1.19-.15,1.02,3.23.98-3.16h1.12l-1.61,4.56Z"></path>
    <path d="M70,69.67h-2.92c.06.88.53,1.27,1.22,1.27.58,0,1.06-.22,1.56-.56l.13.88c-.49.34-1.08.56-1.82.56-1.27,0-2.22-.72-2.22-2.36,0-1.48.88-2.37,2.07-2.37,1.36,0,1.98,1.03,1.98,2.32,0,.09,0,.21,0,.27ZM68,67.87c-.45,0-.82.36-.9,1.1h1.81c-.08-.71-.36-1.1-.9-1.1Z"></path>
    <path d="M72.27,69.12v2.61h-1.13v-4.55h.96l.14.91c.3-.53.75-.97,1.46-1.01l.18,1.12c-.71.05-1.29.42-1.61.91Z"></path>
    <path d="M76.06,71.81c-.66,0-1.34-.21-1.77-.44l.15-.94c.49.32,1.09.54,1.66.54.49,0,.75-.18.75-.47,0-.32-.2-.45-.92-.63-1.1-.28-1.56-.6-1.56-1.43,0-.78.62-1.34,1.68-1.34.59,0,1.14.11,1.59.32l-.15.94c-.45-.25-.99-.41-1.44-.41-.42,0-.63.16-.63.41s.17.38.85.56c1.18.3,1.64.62,1.64,1.48s-.64,1.42-1.84,1.42Z"></path>
    <path d="M79.41,66.42c-.38,0-.68-.26-.68-.64s.3-.66.68-.66.67.27.67.66-.3.64-.67.64ZM78.84,71.72v-4.55h1.13v4.55h-1.13Z"></path>
    <path d="M82.9,71.8c-.89,0-1.5-.33-1.5-1.36v-2.33h-.64v-.92h.64v-1.44l1.11-.17v1.61h.93l.14.92h-1.07v2.15c0,.37.17.56.6.56.13,0,.25,0,.36-.04l.14.95c-.18.04-.39.08-.72.08Z"></path>
    <path d="M86.6,71.97c-.4,1.12-.92,1.47-1.8,1.47-.2,0-.31-.02-.41-.05l-.15-.93c.15.04.31.07.53.07.33,0,.59-.15.73-.48l.1-.3-1.65-4.48,1.18-.15,1.05,3.24,1.02-3.17h1.12l-1.72,4.79Z"></path>
  </g>
  <g>
    <path d="M93.38,71.79c-.71,0-1.35-.17-1.83-.43l.13-.91c.45.29,1.06.56,1.72.56s1.17-.36,1.17-1c0-.6-.27-.84-1.25-1.29-1.23-.56-1.7-.97-1.7-1.91,0-1.05.81-1.73,1.99-1.73.64,0,1.11.15,1.49.37l-.14.89c-.36-.27-.85-.48-1.38-.48-.75,0-1.08.4-1.08.88s.25.74,1.24,1.2c1.27.58,1.71,1.02,1.71,2,0,1.13-.84,1.84-2.07,1.84Z"></path>
    <path d="M98.42,71.8c-1.21,0-2.11-.84-2.11-2.35s.95-2.36,2.13-2.36c.66,0,1.14.17,1.48.42l-.12.83c-.42-.34-.84-.5-1.37-.5-.74,0-1.26.56-1.26,1.61s.56,1.62,1.36,1.62c.46,0,.85-.1,1.32-.5l.12.76c-.47.35-.94.48-1.55.48Z"></path>
    <path d="M103.87,71.71v-3.08c0-.47-.2-.78-.69-.78-.45,0-.9.29-1.31.73v3.13h-.84v-6.72l.84-.13v2.92c.37-.33.89-.69,1.54-.69.85,0,1.31.51,1.31,1.33v3.29h-.84Z"></path>
    <path d="M107.84,71.8c-1.2,0-2.08-.86-2.08-2.35s.87-2.36,2.08-2.36,2.11.87,2.11,2.36-.89,2.35-2.11,2.35ZM107.84,67.8c-.82,0-1.22.7-1.22,1.65s.43,1.65,1.22,1.65,1.25-.7,1.25-1.65-.44-1.65-1.25-1.65Z"></path>
    <path d="M112.84,71.8c-1.2,0-2.08-.86-2.08-2.35s.87-2.36,2.08-2.36,2.11.87,2.11,2.36-.89,2.35-2.11,2.35ZM112.84,67.8c-.82,0-1.22.7-1.22,1.65s.43,1.65,1.22,1.65,1.25-.7,1.25-1.65-.44-1.65-1.25-1.65Z"></path>
    <path d="M116.09,71.71v-6.72l.84-.13v6.85h-.84Z"></path>
    <path d="M122.24,71.8c-1.2,0-2.08-.86-2.08-2.35s.87-2.36,2.08-2.36,2.11.87,2.11,2.36-.89,2.35-2.11,2.35ZM122.24,67.8c-.82,0-1.22.7-1.22,1.65s.43,1.65,1.22,1.65,1.25-.7,1.25-1.65-.44-1.65-1.25-1.65Z"></path>
    <path d="M127.13,65.69c-.39,0-.63.16-.63.58v.91h.91l.1.71h-1.02v3.81h-.83v-3.81h-.68v-.71h.68v-1c0-.9.6-1.24,1.4-1.24.17,0,.27.02.36.02l.12.77c-.09-.02-.27-.04-.44-.04Z"></path>
    <path d="M130.58,71.71v-6.55h.89v5.73h2.36l.12.82h-3.38Z"></path>
    <path d="M137.64,71.71l-.1-.61c-.36.37-.85.7-1.59.7-.82,0-1.33-.49-1.33-1.26,0-1.13.97-1.57,2.86-1.77v-.19c0-.57-.34-.77-.86-.77-.55,0-1.07.17-1.57.39l-.11-.73c.54-.22,1.05-.38,1.76-.38,1.1,0,1.63.45,1.63,1.45v3.17h-.68ZM137.48,69.41c-1.67.16-2.02.62-2.02,1.08,0,.37.25.61.67.61.49,0,.97-.25,1.35-.64v-1.05Z"></path>
    <path d="M144.01,71.71h-.66l-1.04-3.43-1.03,3.43h-.65l-1.46-4.46.81-.13,1,3.35,1.01-3.28h.71l1.01,3.28.97-3.28h.83l-1.46,4.53Z"></path>
  </g>
  <rect class="cls-1" x="17.93" y="26.56" width="42.99" height="30.01"></rect>
  <path class="cls-2" d="M58.52,28.96v25.22H20.32v-25.22h38.2M59.15,28.33H19.69v26.49h39.46v-26.49h0Z"></path>
  <g>
    <path class="cls-2" d="M25.05,35.36c.14-.14.29-.39.44-.39,2.82-.09,5.65-.52,8.45.14,1.66.39,2.54,1.6,2.41,3.14-.08.89-.54,1.46-1.93,2.3,1.14.5,2.13,1.16,2.53,2.41.75,2.39-1.1,4.87-3.84,4.98-2.55.1-5.1.03-7.65.01-.17,0-.34-.18-.52-.28.17-.1.33-.23.51-.3.11-.05.25-.01.38-.02,1.3-.07,1.57-.37,1.57-1.7,0-2.78,0-5.56,0-8.34,0-1.47-.24-1.71-1.74-1.74-.15,0-.3-.02-.45-.02-.06-.06-.11-.12-.17-.19ZM29.31,40.85c0,1.62-.04,3.05.01,4.47.05,1.33.58,1.8,1.92,1.85.23,0,.46,0,.69,0,1.7-.07,2.82-1.04,2.99-2.58.19-1.75-.68-3.15-2.35-3.5-1.03-.21-2.11-.16-3.26-.23ZM29.33,40.27c.92,0,1.78.03,2.64,0,1.38-.06,2.19-.73,2.33-1.86.17-1.36-.48-2.51-1.79-2.8-1.02-.22-2.09-.19-3.18-.27v4.94Z"></path>
    <path class="cls-2" d="M43.46,35.11c-.17.14-.32.39-.5.42-1.14.2-1.36.37-1.38,1.51-.03,1.86-.04,3.73,0,5.59.09,3.84,2.81,4.71,5.7,4.3,2.35-.33,3.42-1.64,3.51-4.25.06-1.86,0-3.73-.06-5.59-.03-1.12-.29-1.33-1.4-1.54-.2-.04-.37-.23-.56-.35.19-.11.38-.3.57-.3,1.48-.03,2.95-.01,4.43-.01.05.07.09.15.14.22-.17.15-.31.38-.5.43-1.08.27-1.41.63-1.42,1.75-.02,1.81,0,3.63,0,5.44,0,2.94-1.56,4.87-4.44,5.46-1.63.33-3.26.27-4.81-.38-1.86-.78-2.96-2.2-3.05-4.22-.1-2.11-.04-4.24-.05-6.36,0-1.38-.05-1.42-1.37-1.71-.15-.03-.26-.22-.39-.34.14-.1.28-.29.42-.29,1.68-.02,3.36-.01,5.04-.01.05.07.09.15.14.22Z"></path>
  </g>
</svg>
