<?xml version="1.0" encoding="UTF-8"?>
<svg xmlns="http://www.w3.org/2000/svg" id="Layer_1" version="1.1" viewBox="0 0 163 100">
  <defs>
    <style> .st0 { fill: #df1e36; } </style>
  </defs>
  <polygon points="41.5 44.7 39.7 44.7 39.7 53.2 45.8 53.2 45.8 51.6 41.5 51.6 41.5 44.7 41.5 44.7"></polygon>
  <path d="M49.3,49.9l1.1-3.4h0l1.1,3.4h-2.2ZM49.4,44.7l-3,8.5h1.9l.6-1.8h3.2l.5,1.8h1.9l-3-8.5s-2.1,0-2.1,0Z"></path>
  <polygon points="59.7 51.4 59.6 51.4 58.1 44.7 55.5 44.7 55.5 53.2 57.1 53.2 57.1 46.1 57.2 46.1 58.7 53.2 60.5 53.2 62.1 46.1 62.1 46.1 62.1 53.2 63.7 53.2 63.7 44.7 61.2 44.7 59.7 51.4 59.7 51.4"></polygon>
  <path d="M67.7,49.9l1.1-3.4h0l1.1,3.4h-2.2ZM67.8,44.7l-3,8.5h1.9l.6-1.8h3.2l.5,1.8h1.9l-3-8.5s-2.1,0-2.1,0Z"></path>
  <path d="M77.9,48.4h-2.1v-2.3h2.2c1,0,1.2.7,1.2,1.1,0,.8-.5,1.2-1.4,1.2h0ZM80.8,51.3c0-1.6-.4-1.8-1.1-2.2.9-.3,1.3-1.1,1.3-2s-.4-2.4-2.7-2.4h-4.3v8.5h1.7v-3.3h1.8c1.3,0,1.4.5,1.4,1.6s0,1.3.2,1.7h2v-.2c-.4-.1-.4-.5-.4-1.7h0Z"></path>
  <path d="M90.9,50.3c0,1-.5,1.6-1.7,1.6s-1.5-.5-1.5-1.7v-5.5h-1.8v5.6c0,1.9,1.2,3.1,3.4,3.1s3.5-1,3.5-3.2v-5.5h-1.8v5.6h0Z"></path>
  <polygon points="99.7 50.6 99.6 50.6 96.3 44.7 94.4 44.7 94.4 53.2 96 53.2 96 47.1 96.1 47.1 99.5 53.2 101.3 53.2 101.3 44.7 99.7 44.7 99.7 50.6 99.7 50.6"></polygon>
  <polygon points="102.9 53.2 104.7 53.2 104.7 44.7 102.9 44.7 102.9 53.2 102.9 53.2"></polygon>
  <polygon points="109.4 51.1 109.4 51.1 107.6 44.7 105.7 44.7 108.5 53.2 110.2 53.2 113.1 44.7 111.3 44.7 109.4 51.1 109.4 51.1"></polygon>
  <polygon points="116 49.5 120.2 49.5 120.2 48 116 48 116 46.2 120.5 46.2 120.5 44.7 114.3 44.7 114.3 53.2 120.7 53.2 120.7 51.7 116 51.7 116 49.5 116 49.5"></polygon>
  <path d="M126,48.4h-2.1v-2.3h2.2c1,0,1.2.7,1.2,1.1,0,.8-.5,1.2-1.4,1.2h0ZM128.9,51.3c0-1.6-.4-1.8-1.1-2.2.8-.3,1.3-1.1,1.3-2s-.4-2.4-2.7-2.4h-4.3v8.5h1.7v-3.3h1.8c1.3,0,1.4.5,1.4,1.6s0,1.3.2,1.7h2v-.2c-.4-.1-.4-.5-.4-1.7h0Z"></path>
  <path d="M132.1,46.9c0-.8.8-1,1.5-1,1.6,0,1.7.9,1.7,1.3h1.7c0-1-.7-2.8-3.3-2.8s-3.3,1.7-3.3,2.6c0,3.4,5.2,2,5.2,3.8s-.9,1.1-1.8,1.1c-1.6,0-1.8-.9-1.8-1.4h-1.7c0,1.1.5,2.8,3.7,2.8s3.4-.2,3.4-2.8-5.2-1.9-5.2-3.7h0Z"></path>
  <polygon points="138.5 53.2 140.3 53.2 140.3 44.7 138.5 44.7 138.5 53.2 138.5 53.2"></polygon>
  <polygon points="141.2 46.2 143.8 46.2 143.8 53.2 145.6 53.2 145.6 46.2 148.2 46.2 148.2 44.7 141.2 44.7 141.2 46.2 141.2 46.2"></polygon>
  <polygon points="154.1 44.7 152.4 48.4 150.6 44.7 148.5 44.7 151.4 50 151.4 53.2 153.2 53.2 153.2 50 156.1 44.7 154.1 44.7 154.1 44.7"></polygon>
  <path d="M89.6,60.5c-.4,0-.8-.1-1.1-.4l.3-.4c.2.2.5.3.8.3s.4,0,.4-.2h0c0-.1,0-.2-.5-.3-.5-.1-.9-.3-.9-.8h0c0-.5.4-.8.9-.8s.7.1,1,.3l-.3.4c-.2-.2-.5-.3-.7-.3s-.3.1-.3.2h0c0,.2.1.2.6.4.5.1.8.3.8.8h0c0,.5-.4.8-1,.8h0Z"></path>
  <polygon points="92.7 58.4 92.7 60.4 92.2 60.4 92.2 58.4 91.4 58.4 91.4 57.8 93.6 57.8 93.6 58.4 92.7 58.4 92.7 58.4 92.7 58.4"></polygon>
  <path d="M96.1,60.4l-.2-.6h-1.1l-.2.6h-.6l1.1-2.6h.5l1.1,2.6h-.6ZM95.3,58.5l-.4.9h.7l-.4-.9h0Z"></path>
  <polygon points="98.5 58.4 98.5 60.4 97.9 60.4 97.9 58.4 97.1 58.4 97.1 57.8 99.3 57.8 99.3 58.4 98.5 58.4 98.5 58.4 98.5 58.4"></polygon>
  <polygon points="100.3 60.4 100.3 57.8 102.3 57.8 102.3 58.3 100.9 58.3 100.9 58.9 102.1 58.9 102.1 59.4 100.9 59.4 100.9 59.9 102.3 59.9 102.3 60.4 100.3 60.4 100.3 60.4 100.3 60.4"></polygon>
  <path d="M106.1,60.5c-.7,0-1.1-.4-1.1-1.2v-1.5h.6v1.5c0,.4.2.6.6.6s.6-.2.6-.6v-1.5h.6v1.5c0,.8-.4,1.2-1.1,1.2h0Z"></path>
  <polygon points="110.2 60.4 108.9 58.8 108.9 60.4 108.3 60.4 108.3 57.8 108.9 57.8 110.1 59.4 110.1 57.8 110.6 57.8 110.6 60.4 110.2 60.4 110.2 60.4 110.2 60.4"></polygon>
  <polygon points="111.8 60.4 111.8 57.8 112.4 57.8 112.4 60.4 111.8 60.4 111.8 60.4 111.8 60.4"></polygon>
  <polygon points="114.9 60.5 114.4 60.5 113.4 57.8 114 57.8 114.7 59.7 115.4 57.8 116 57.8 114.9 60.5 114.9 60.5 114.9 60.5"></polygon>
  <polygon points="116.9 60.4 116.9 57.8 118.9 57.8 118.9 58.3 117.5 58.3 117.5 58.9 118.7 58.9 118.7 59.4 117.5 59.4 117.5 59.9 118.9 59.9 118.9 60.4 116.9 60.4 116.9 60.4 116.9 60.4"></polygon>
  <path d="M121.6,60.4l-.6-.8h-.5v.8h-.6v-2.6h1.2c.6,0,1,.3,1,.9h0c0,.4-.2.7-.6.8l.6.9h-.7,0ZM121.6,58.7c0-.2-.2-.4-.5-.4h-.6v.7h.6c.3,0,.4-.1.4-.4h0Z"></path>
  <path d="M124.1,60.5c-.4,0-.8-.1-1.1-.4l.3-.4c.2.2.5.3.8.3s.4,0,.4-.2h0c0-.1,0-.2-.5-.3-.5-.1-.9-.3-.9-.8h0c0-.5.4-.8.9-.8s.7.1,1,.3l-.3.4c-.2-.2-.5-.3-.7-.3s-.3.1-.3.2h0c0,.2.1.2.6.4.5.1.8.3.8.8h0c0,.5-.4.8-1,.8h0Z"></path>
  <polygon points="126.2 60.4 126.2 57.8 126.7 57.8 126.7 60.4 126.2 60.4 126.2 60.4 126.2 60.4"></polygon>
  <polygon points="129.1 58.4 129.1 60.4 128.5 60.4 128.5 58.4 127.7 58.4 127.7 57.8 129.9 57.8 129.9 58.4 129.1 58.4 129.1 58.4 129.1 58.4"></polygon>
  <polygon points="132.2 59.4 132.2 60.4 131.6 60.4 131.6 59.4 130.6 57.8 131.3 57.8 131.9 58.9 132.5 57.8 133.2 57.8 132.2 59.4 132.2 59.4 132.2 59.4"></polygon>
  <path d="M136.7,60.5c-.4,0-.8-.1-1.1-.4l.3-.4c.2.2.5.3.8.3s.4,0,.4-.2h0c0-.1,0-.2-.5-.3-.5-.1-.9-.3-.9-.8h0c0-.5.4-.8.9-.8s.7.1,1,.3l-.3.4c-.2-.2-.5-.3-.7-.3s-.3.1-.3.2h0c0,.2.1.2.6.4.5.1.8.3.8.8h0c0,.5-.4.8-1,.8h0Z"></path>
  <polygon points="139.8 59.4 139.8 60.4 139.3 60.4 139.3 59.4 138.3 57.8 139 57.8 139.6 58.9 140.2 57.8 140.9 57.8 139.8 59.4 139.8 59.4 139.8 59.4"></polygon>
  <path d="M142.5,60.5c-.4,0-.8-.1-1.1-.4l.3-.4c.2.2.5.3.8.3s.4,0,.4-.2h0c0-.1,0-.2-.5-.3-.5-.1-.9-.3-.9-.8h0c0-.5.4-.8.9-.8s.7.1,1,.3l-.3.4c-.2-.2-.5-.3-.7-.3s-.3.1-.3.2h0c0,.2.1.2.6.4.5.1.8.3.8.8h0c0,.5-.4.8-1,.8h0Z"></path>
  <polygon points="145.7 58.4 145.7 60.4 145.1 60.4 145.1 58.4 144.3 58.4 144.3 57.8 146.5 57.8 146.5 58.4 145.7 58.4 145.7 58.4 145.7 58.4"></polygon>
  <polygon points="147.4 60.4 147.4 57.8 149.4 57.8 149.4 58.3 148 58.3 148 58.9 149.2 58.9 149.2 59.4 148 59.4 148 59.9 149.4 59.9 149.4 60.4 147.4 60.4 147.4 60.4 147.4 60.4"></polygon>
  <polygon points="152.5 60.4 152.5 58.7 151.8 59.9 151.8 59.9 151 58.8 151 60.4 150.5 60.4 150.5 57.8 151.1 57.8 151.8 58.9 152.5 57.8 153.1 57.8 153.1 60.4 152.5 60.4 152.5 60.4 152.5 60.4"></polygon>
  <polygon points="41 59.7 40.9 59.7 40 58.4 40 60.4 39.7 60.4 39.7 57.9 40 57.9 41 59.3 41.9 57.9 42.2 57.9 42.2 60.4 41.9 60.4 41.9 58.4 41 59.7 41 59.7 41 59.7"></polygon>
  <polygon points="45.1 58.1 43.6 58.1 43.6 59 45 59 45 59.3 43.6 59.3 43.6 60.2 45.2 60.2 45.2 60.4 43.3 60.4 43.3 57.9 45.1 57.9 45.1 58.1 45.1 58.1 45.1 58.1"></polygon>
  <polygon points="47.4 59.7 47.3 59.7 46.4 58.4 46.4 60.4 46.1 60.4 46.1 57.9 46.4 57.9 47.3 59.3 48.3 57.9 48.6 57.9 48.6 60.4 48.3 60.4 48.3 58.4 47.4 59.7 47.4 59.7 47.4 59.7"></polygon>
  <path d="M51.6,58.5c0,.3-.2.5-.4.6.3,0,.6.3.6.6s-.4.7-.9.7h-1.1v-2.6h1.1c.5,0,.8.2.8.6h0ZM51.3,58.6c0-.3-.2-.4-.6-.4h-.8v.9h.8c.4,0,.6-.2.6-.5h0ZM51.4,59.7c0-.3-.2-.4-.7-.4h-.8v.9h.9c.4,0,.6-.2.6-.5h0Z"></path>
  <polygon points="54.6 58.1 53 58.1 53 59 54.4 59 54.4 59.3 53 59.3 53 60.2 54.6 60.2 54.6 60.4 52.7 60.4 52.7 57.9 54.6 57.9 54.6 58.1 54.6 58.1 54.6 58.1"></polygon>
  <path d="M57.3,60.4l-.7-1h-.7v1h-.3v-2.6h1.1c.6,0,.9.3.9.8s-.3.7-.7.7l.8,1.1h-.4,0ZM56.6,58.1h-.8v1h.8c.4,0,.7-.2.7-.5s-.2-.5-.7-.5h0Z"></path>
  <polygon points="61.1 58.4 61.1 60.4 60.6 60.4 60.6 58.4 59.8 58.4 59.8 57.8 61.9 57.8 61.9 58.4 61.1 58.4 61.1 58.4 61.1 58.4"></polygon>
  <polygon points="64.5 60.4 64.5 59.4 63.5 59.4 63.5 60.4 62.9 60.4 62.9 57.8 63.5 57.8 63.5 58.9 64.5 58.9 64.5 57.8 65.1 57.8 65.1 60.4 64.5 60.4 64.5 60.4 64.5 60.4"></polygon>
  <polygon points="66.3 60.4 66.3 57.8 68.2 57.8 68.2 58.3 66.9 58.3 66.9 58.9 68.1 58.9 68.1 59.4 66.9 59.4 66.9 59.9 68.3 59.9 68.3 60.4 66.3 60.4 66.3 60.4 66.3 60.4"></polygon>
  <polygon points="72.1 58.4 72.1 60.4 71.6 60.4 71.6 58.4 70.8 58.4 70.8 57.8 72.9 57.8 72.9 58.4 72.1 58.4 72.1 58.4 72.1 58.4"></polygon>
  <polygon points="73.9 60.4 73.9 57.8 75.9 57.8 75.9 58.3 74.5 58.3 74.5 58.9 75.7 58.9 75.7 59.4 74.5 59.4 74.5 59.9 75.9 59.9 75.9 60.4 73.9 60.4 73.9 60.4 73.9 60.4"></polygon>
  <polygon points="78.6 60.4 78 59.6 77.4 60.4 76.8 60.4 77.7 59.1 76.8 57.8 77.5 57.8 78 58.7 78.6 57.8 79.2 57.8 78.3 59.1 79.3 60.4 78.6 60.4 78.6 60.4 78.6 60.4"></polygon>
  <path d="M82.1,60.4l-.2-.6h-1.1l-.2.6h-.6l1.1-2.6h.5l1.1,2.6h-.6ZM81.3,58.5l-.4.9h.7l-.4-.9h0Z"></path>
  <path d="M84.5,60.5c-.4,0-.8-.1-1.1-.4l.3-.4c.2.2.5.3.8.3s.4,0,.4-.2h0c0-.1,0-.2-.5-.3-.5-.1-.9-.3-.9-.8h0c0-.5.4-.8.9-.8s.7.1,1,.3l-.3.4c-.2-.2-.5-.3-.7-.3s-.3.1-.3.2h0c0,.2.1.2.6.4.5.1.8.3.8.8h0c0,.5-.4.8-1,.8h0Z"></path>
  <polygon points="154.5 58.9 154.3 58.9 154.3 58 153.9 58 153.9 57.8 154.8 57.8 154.8 58 154.5 58 154.5 58.9 154.5 58.9 154.5 58.9"></polygon>
  <polygon points="155.5 58.6 155.5 58.6 155.2 58.1 155.2 58.9 155 58.9 155 57.8 155.2 57.8 155.5 58.3 155.8 57.8 156 57.8 156 58.9 155.8 58.9 155.8 58.1 155.5 58.6 155.5 58.6 155.5 58.6"></polygon>
  <polygon points="21.1 39.1 23.2 45.6 30 45.6 24.5 49.6 26.6 56.1 21.1 52 15.6 56.1 17.7 49.6 12.2 45.6 19 45.6 21.1 39.1 21.1 39.1"></polygon>
  <polygon class="st0" points="12.3 36.6 14.3 36.6 12.2 43.1 13.7 43.1 13.2 44.5 9.8 44.5 12.3 36.6 12.3 36.6"></polygon>
  <polygon class="st0" points="16.1 36.6 18.1 36.6 16 43 16.9 43 19 36.6 20.8 36.6 18.3 44.5 13.6 44.5 16.1 36.6 16.1 36.6"></polygon>
  <polygon points="29.9 36.6 30.5 38.5 23.7 38.4 24.1 39.8 22.7 39.8 21.6 36.6 29.9 36.6 29.9 36.6"></polygon>
  <polygon points="31.1 40.2 31.7 42 24.9 42.1 25.2 42.9 31.9 42.9 32.5 44.7 24.2 44.7 22.8 40.2 31.1 40.2 31.1 40.2"></polygon>
  <polygon points="35.3 53.1 33.7 54.3 31.6 47.8 30.4 48.6 30 47.2 32.7 45.2 35.3 53.1 35.3 53.1"></polygon>
  <polygon points="32.2 55.3 30.7 56.5 28.5 50.1 27.8 50.5 29.9 57 28.4 58.1 25.9 50.2 29.7 47.5 32.2 55.3 32.2 55.3"></polygon>
  <polygon points="21.1 63.4 19.5 62.3 25 58.2 23.9 57.4 25 56.5 27.8 58.5 21.1 63.4 21.1 63.4"></polygon>
  <polygon points="18.1 61.2 16.5 60 21.9 56 21.2 55.5 15.8 59.5 14.3 58.4 21 53.6 24.7 56.3 18.1 61.2 18.1 61.2"></polygon>
  <polygon points="6.9 53.1 7.5 51.2 13.1 55.2 13.5 53.8 14.7 54.7 13.6 58 6.9 53.1 6.9 53.1"></polygon>
  <polygon points="8.1 49.5 8.7 47.6 14.2 51.6 14.5 50.8 9 46.8 9.6 45 16.3 49.9 14.8 54.3 8.1 49.5 8.1 49.5"></polygon>
  <path d="M30.9,59.3s-.1,0-.2,0h-.1v.3h.1c0,0,.1,0,.1,0,0,0,0,0,0-.1s0-.1,0-.1h0ZM30.8,59.2c.1,0,.2,0,.2,0,0,0,.1.1.1.2s0,.1,0,.2c0,0,0,0-.1,0,0,0,.1,0,.1,0s0,0,0,.1h0v.2h-.1c0-.2,0-.3,0-.3,0,0,0,0-.2,0h-.1v.4h-.2v-.9h.4ZM30.3,59.1c-.1.1-.2.3-.2.5s0,.4.2.5c.1.1.3.2.5.2s.4,0,.5-.2c.1-.1.2-.3.2-.5s0-.4-.2-.5c-.1-.1-.3-.2-.5-.2s-.4,0-.5.2h0ZM31.3,60.2c-.2.2-.3.2-.6.2s-.4,0-.6-.2c-.2-.2-.2-.4-.2-.6s0-.4.2-.6c.2-.2.3-.2.6-.2s.4,0,.6.2c.2.2.2.3.2.6s0,.4-.2.6h0Z"></path>
</svg>
