<?xml version="1.0" encoding="UTF-8"?>
<svg xmlns="http://www.w3.org/2000/svg" id="Layer_1" version="1.1" viewBox="0 0 400 1000">
  <defs>
    <style>
      .st0 {
        fill: #fff;
      }
    </style>
  </defs>
  <path class="st0" d="M229.486,540.632L45.059,945.009c-2.822,6.097-.167,13.328,5.93,16.15,1.574.728,3.285,1.112,5.018,1.125h94.89c4.778-.001,9.131-2.745,11.192-7.056l170.315-374.207c23.552-51.447,23.552-110.596,0-162.043L162.09,44.772c-2.061-4.311-6.414-7.055-11.192-7.056H56.008c-6.719.05-12.124,5.538-12.074,12.256.013,1.734.397,3.445,1.125,5.018l184.427,404.377c11.69,25.827,11.69,55.438,0,81.265Z"></path>
</svg>
