<?xml version="1.0" encoding="UTF-8"?>
<svg xmlns="http://www.w3.org/2000/svg" id="Layer_1" version="1.1" viewBox="0 0 163 100">
  <defs>
    <style> .st0 { fill: #008099; } </style>
  </defs>
  <path class="st0" d="M4.6,48.2l22.1,22.1,22.1-22.1-22.1-22.1L4.6,48.2ZM36.7,41.6l6.6,6.6-7.9,7.9-3.2-3.2c-2.1,2.2-4.8,2.9-6.9,2.9-11.1,0-11.3-15-1.6-15.2,3,0,5.8,1.7,5.7,5.3-.1,5.3-7.1,5-7.1,1.8s.6-1.4,1.3-1.4,1.1.9,2,.9,1.3-.6,1.3-1.3c.2-3.6-7.3-4.3-7.5,1.8-.4,6.7,12.1,8.2,12.8-1.8.4-5.2-6.1-10.4-13.2-7l7.5-7.4,10.1,10.1ZM61.1,32c.9,0,1.6-.4,1.6-1.5s-1.3-1.3-2.2-1.3h-1.2v2.8s1.8,0,1.8,0ZM55.2,38.8v-12.6h6.1c3.6,0,5.4,1.7,5.4,4.3s-1.6,4.5-5.2,4.5h-2.1v3.9h-4.2ZM70.9,34.2c0,1.8.6,2.5,1.6,2.5s1.6-.8,1.6-2.5-.6-2.3-1.6-2.3-1.6,1.3-1.6,2.3M72.4,29.5c3.3,0,5.2,1.9,5.2,4.8s-2.3,5-5.2,5-5.2-1.6-5.2-4.8,2.1-5,5.2-5"></path>
  <path class="st0" d="M92.6,33v-3.3h-1.8v-2.8h-3.6v2.8h-2.1c-1.4,0-2.1.6-2.8,1.8h0v-1.8h-3.3v9.2h3.7v-3.2c0-2,.8-2.7,2.3-2.7s1.3,0,1.6,0h.8v2.6c0,3.2.6,3.5,5.4,3.3v-2.6h-.6c-1,0-1.1-.3-1.1-1.1v-2.1h1.7ZM94,26.1h3.7v12.6h-3.7v-12.6ZM105.3,34.9c-1.2.6-2.8.3-2.8,1.5s.4.8,1.1.8c1.3,0,1.8-1,1.6-2.3M109,38.9h-3.5v-1c-1.1,1-2.1,1.3-3.5,1.3s-3.3-.9-3.3-2.8c0-4.2,6.5-2.3,6.5-4s-.8-.8-1.2-.8-1.2,0-1.3.9h-3.5c0-1.9,1.4-3.1,5-3.1s4.6,1.6,4.6,3.8v5.6q0,0,0,0ZM110.6,29.7h3.3v1.4c.9-1.1,1.7-1.7,3.1-1.7,2.4,0,3.5,1.4,3.5,4v5.5h-3.7v-4.9c0-.9-.2-1.7-1.3-1.7s-1.4.7-1.4,1.9v4.7h-3.7v-9.2h0ZM128.7,34.4c0-1-.4-2.1-1.6-2.1s-1.6,1.1-1.6,2.2.2,2.1,1.4,2.1,1.7-1.1,1.7-2.1M128.9,38.9v-1.2c-.9,1.1-1.6,1.5-2.8,1.5-2.8,0-4.2-2.1-4.2-4.7s1.7-5,3.9-5,2,.3,2.8,1.2v-4.4h3.7v12.6h-3.3ZM62.2,46.6c0-1.3-.9-2.1-2.2-2.1s-2.3,1.3-2.3,3.7.4,3.5,2.5,3.5,2-.9,2.1-2.1h4c-.4,3.3-2.7,5.2-6,5.2s-6.7-2.6-6.7-6.7,2.8-6.7,6.3-6.7,6,1.9,6.4,5.2h-4ZM78.9,45.3h3.3v1.3c.4-.7,1.6-1.6,2.9-1.6s2.6.7,3,1.7c.8-1.1,1.8-1.7,3.2-1.7,2.7,0,3.5,1.5,3.5,4v5.5h-3.7v-4.7c0-1.3-.3-1.9-1.2-1.9s-1.3.9-1.3,2.1v4.5h-3.7v-4.7c0-1.3-.3-1.9-1.2-1.9s-1.3.9-1.3,2.1v4.5h-3.7v-9.2h0ZM96.5,45.3h3.3v1.3c.4-.7,1.6-1.6,2.9-1.6s2.6.7,3,1.7c.8-1.1,1.8-1.7,3.2-1.7,2.7,0,3.5,1.5,3.5,4v5.5h-3.7v-4.7c0-1.3-.3-1.9-1.2-1.9s-1.3.9-1.3,2.1v4.5h-3.7v-4.7c0-1.3-.3-1.9-1.2-1.9s-1.3.9-1.3,2.1v4.5h-3.7v-9.2h0ZM124.1,54.4h-3.4v-1.3c-.9,1.3-1.8,1.6-3.3,1.6s-3.3-1.2-3.3-3.8v-5.6h3.6v5c0,1.3.4,1.7,1.3,1.7s1.4-.8,1.4-2.2v-4.5h3.7v9.1ZM125.8,45.3h3.3v1.4c.9-1.1,1.7-1.7,3.1-1.7,2.4,0,3.5,1.4,3.5,4v5.5h-3.7v-4.9c0-.9-.2-1.7-1.3-1.7s-1.4.7-1.4,1.9v4.7h-3.7v-9.2h0ZM62.2,62.2c0-1.3-.9-2.1-2.2-2.1s-2.3,1.3-2.3,3.7.4,3.5,2.5,3.5,2-.9,2.1-2.1h4c-.4,3.3-2.7,5.2-6,5.2s-6.7-2.6-6.7-6.7,2.8-6.7,6.3-6.7,6,1.9,6.4,5.2h-4ZM78.9,57.4h3.7v12.6h-3.7v-12.6ZM84.8,57.4h3.6v12.6h-3.6v-12.6ZM96.8,64.4c0-.9-.8-1.6-1.6-1.6s-1.7.6-1.7,1.6h3.3ZM93.5,66.3c0,1.1.9,1.8,1.8,1.8s1.1-.3,1.3-.8h3.5c-.6,2.3-3,3-5.1,3s-5.2-1.7-5.2-4.8,2.3-5,5.2-5,5.5,2.3,5.4,5.7h-6.9ZM105.1,65.9c0,.9.4,1.8,1.4,1.8,1.1,0,1.6-.9,1.6-1.9s-.4-2-1.6-2-1.4.9-1.4,2.1M106.6,71.4c1.1,0,1.5-.1,1.5-1.4v-.8c-.5.5-1.3,1-2.6,1-2.6,0-4-2-4-4.3s1.1-4.7,4.1-4.7,2.1.6,2.8,1.5v-1.2h3.2v7.4c0,1.9-.5,3.7-1.8,4.5-.9.6-2.8.4-3.8.4h-1.2v-2.4h1.9ZM119.7,64.4c0-.9-.8-1.6-1.6-1.6s-1.7.6-1.7,1.6h3.3ZM116.3,66.3c0,1.1.9,1.8,1.8,1.8s1.1-.3,1.3-.8h3.5c-.6,2.3-3,3-5.1,3s-5.2-1.7-5.2-4.8,2.3-5,5.2-5,5.5,2.3,5.4,5.7h-6.9ZM137,40.2h3.7v3.7h-3.7v-3.7ZM154.9,45.3l-1.6,5.7-1.6-5.7h-5.2v-2.3h-3.6v2.3h-5.7v9.2h3.7v-5.8h2v2.6c0,3.2.6,3.5,5.4,3.3v-2.6h-.6c-1,0-1.1-.3-1.1-1.1v-2.1h2.9l1.8,5c.4,1,.1,1.3-1.1,1.3h-.8v2.6c.3,0,.9,0,1.6,0,3.3,0,3.6-.9,4.6-3.8l3-8.7h-3.5ZM70.9,49.8c0,1.8.6,2.5,1.6,2.5s1.6-.8,1.6-2.5-.6-2.3-1.6-2.3c-1.2,0-1.6,1.3-1.6,2.3M72.5,45.1c3.3,0,5.2,1.9,5.2,4.8s-2.3,5-5.2,5-5.2-1.6-5.2-4.8,2.1-5,5.2-5M70.9,65.4c0,1.8.6,2.5,1.6,2.5s1.6-.8,1.6-2.5-.6-2.3-1.6-2.3c-1.2,0-1.6,1.3-1.6,2.3M72.4,60.6c3.3,0,5.2,1.9,5.2,4.8s-2.3,5-5.2,5-5.2-1.6-5.2-4.8c0-3.2,2.1-5,5.2-5"></path>
</svg>
