<?xml version="1.0" encoding="UTF-8"?>
<svg xmlns="http://www.w3.org/2000/svg" id="Layer_1" version="1.1" viewBox="0 0 191.9 20.3">
  <defs>
    <style> .st0 { fill: #004be2; } .st1 { fill: #2a2b2a; } </style>
  </defs>
  <g>
    <g>
      <path class="st1" d="M34.5,15.8V1h5.2c1,0,1.9.2,2.7.6s1.4.9,1.8,1.6c.4.7.7,1.5.7,2.4s-.2,1.7-.7,2.4-1.1,1.3-1.9,1.7c-.8.4-1.7.6-2.7.6h-2.6v5.5h-2.5ZM36.9,8.1h2.9c.5,0,.9-.1,1.3-.3s.7-.5.9-.9.3-.8.3-1.3-.3-1.3-.8-1.7c-.5-.5-1.2-.7-2-.7h-2.7v4.9h0ZM42.7,15.8l-3.5-6,1.9-1.3,4.3,7.3h-2.8,0Z"></path>
      <path class="st1" d="M51.7,16.1c-1,0-1.9-.2-2.7-.7s-1.4-1.1-1.9-2c-.5-.8-.7-1.8-.7-2.9s.2-2,.7-2.9c.5-.8,1.1-1.5,1.9-2,.8-.5,1.7-.7,2.8-.7s1.8.2,2.6.7,1.4,1.2,1.8,2.1c.4.9.7,2,.7,3.3h-8.3l.3-.3c0,.7,0,1.2.4,1.7.3.5.7.8,1.1,1.1s1,.4,1.5.4,1.2-.1,1.6-.4c.4-.3.8-.7,1-1.1l2.1.9c-.3.6-.7,1.1-1.1,1.5-.5.4-1,.7-1.6,1-.6.2-1.3.3-2.2.3ZM48.9,9.6l-.3-.3h6l-.3.3c0-.6,0-1.1-.4-1.4-.3-.4-.6-.7-1-.8-.4-.2-.8-.3-1.2-.3s-.8,0-1.3.3c-.4.2-.8.5-1.1.8-.3.4-.4.9-.4,1.4Z"></path>
      <path class="st1" d="M61.9,16.1c-1.3,0-2.3-.3-3-.8-.7-.6-1-1.4-1-2.4s.4-1.9,1.1-2.5c.7-.6,1.8-.9,3.1-.9h2.8v1.8h-2.1c-.9,0-1.6.1-2,.4-.4.3-.6.6-.6,1.1s.2.7.5,1c.3.2.8.3,1.4.3s1-.1,1.4-.4c.4-.2.7-.6.9-1,.2-.4.3-.8.3-1.3h.7c0,1.4-.3,2.6-.9,3.4-.6.8-1.5,1.2-2.8,1.2h.2ZM65,15.8v-2c0,0,0-3.5,0-3.5,0-.7,0-1.3-.2-1.8,0-.5-.4-.9-.7-1.1-.3-.3-.8-.4-1.3-.4s-1,0-1.3.3c-.4.2-.7.5-1,1l-2.1-.8c.2-.5.5-.9.9-1.3s.8-.7,1.4-1c.6-.2,1.3-.4,2.1-.4s1.9.2,2.6.6,1.2,1,1.5,1.7.5,1.7.5,2.7v5.8h-2.2v.2Z"></path>
      <path class="st1" d="M73.8,16.1c-1,0-1.8-.2-2.5-.7s-1.3-1.1-1.7-1.9c-.4-.8-.6-1.8-.6-2.9s.2-2.1.6-2.9c.4-.8,1-1.5,1.7-1.9s1.6-.7,2.5-.7,1.7.2,2.3.7c.6.5,1.1,1.1,1.5,1.9.3.8.5,1.8.5,2.9s-.2,2.1-.5,2.9c-.3.8-.8,1.5-1.5,1.9-.6.5-1.4.7-2.3.7ZM74.4,13.9c.5,0,1-.1,1.4-.4.4-.3.7-.7,1-1.2.2-.5.3-1.1.3-1.8s0-1.3-.3-1.8c-.2-.5-.6-.9-1-1.2s-.9-.4-1.5-.4-1.1,0-1.5.4-.8.7-1,1.2-.4,1.1-.4,1.8,0,1.3.4,1.8c.2.5.6.9,1,1.2s.9.4,1.5.4h0ZM77.2,15.8v-2c0,0,0-12.9,0-12.9h2.4v14.8h-2.3Z"></path>
      <path class="st1" d="M85.5,15.8l-4.7-10.6h2.6l3.7,8.9.8,1.7h-2.4ZM83.7,20.3c-.3,0-.7,0-1.1-.2-.4-.1-.8-.3-1.2-.5l.9-1.9c.3.1.5.2.7.3.2,0,.4.1.6.1.3,0,.6,0,.9-.3.2-.2.4-.4.6-.8l1.3-2.9,3.6-8.9h2.6l-4.9,11.7c-.3.7-.6,1.3-.9,1.8s-.7.9-1.1,1.2c-.5.3-1,.4-1.7.4h-.3Z"></path>
      <path class="st1" d="M99,15.8V1h8.5v1.2h-7.2v5.3h6.7v1.2h-6.7v5.8h7.2v1.2h-8.5Z"></path>
      <path class="st1" d="M113.5,16.1c-.9,0-1.8-.2-2.5-.7s-1.3-1.1-1.7-2c-.4-.8-.6-1.8-.6-2.9s.2-2,.6-2.9c.4-.8,1-1.5,1.7-2s1.5-.7,2.5-.7,1.7.2,2.4.7,1.2,1.1,1.6,2c.4.8.6,1.8.6,2.9s-.2,2-.6,2.9c-.4.8-.9,1.5-1.6,2s-1.5.7-2.4.7ZM113.8,14.9c.7,0,1.3-.2,1.8-.6.5-.4.9-.9,1.2-1.6.3-.7.4-1.4.4-2.3s0-1.6-.4-2.3-.7-1.2-1.2-1.6-1.1-.6-1.8-.6-1.4.2-1.9.6c-.6.4-1,.9-1.3,1.6s-.5,1.4-.5,2.3.2,1.6.5,2.3.8,1.2,1.3,1.6c.6.4,1.2.6,1.9.6ZM117.3,15.8V.9h1.3v14.8h-1.3Z"></path>
      <path class="st1" d="M121.3,10.7v-5.4h1.3v5.4h-1.3ZM122.6,10.7c0,1.2,0,2.1.4,2.7.3.6.7,1,1.1,1.2s1,.3,1.6.3c1,0,1.8-.4,2.4-1.1.6-.7.8-1.8.8-3.1h.8c0,1.1-.2,2.1-.5,2.9-.3.8-.8,1.4-1.4,1.9-.6.4-1.4.6-2.3.6s-1.5-.2-2.2-.5c-.6-.3-1.1-.9-1.5-1.6-.4-.7-.5-1.7-.5-2.9v-.5h1.3,0ZM129,15.8V5.3h1.3v10.6h-1.3Z"></path>
      <path class="st1" d="M137.8,16.1c-1,0-1.9-.2-2.7-.7s-1.4-1.1-1.8-2c-.4-.8-.7-1.8-.7-2.9s.2-2,.7-2.9c.4-.8,1-1.5,1.8-2s1.7-.7,2.7-.7,1.9.2,2.7.7c.8.4,1.4,1.1,1.8,1.9l-1.1.6c-.3-.6-.8-1.1-1.4-1.4-.6-.3-1.3-.5-2-.5s-1.4.2-2,.6-1,.9-1.4,1.5c-.3.7-.5,1.4-.5,2.3s.2,1.6.5,2.3.8,1.2,1.4,1.5c.6.4,1.3.6,2,.6s1.4-.2,2-.6c.6-.4,1-.9,1.4-1.6l1.1.6c-.4.9-1,1.5-1.8,2-.8.5-1.7.7-2.7.7Z"></path>
      <path class="st1" d="M147.9,16.1c-1.2,0-2.2-.3-2.9-.9s-1-1.4-1-2.4.3-1.9,1-2.4c.7-.6,1.7-.9,2.9-.9h3.2v1.2h-3c-1,0-1.7.2-2.2.6-.4.4-.7.9-.7,1.6s.2,1.2.7,1.5c.5.4,1.1.6,1.9.6s1.3-.1,1.7-.4c.5-.3.9-.7,1.1-1.2s.4-1.2.4-2h.7c0,1.4-.3,2.6-1,3.5s-1.6,1.3-2.9,1.3h.1ZM151.2,15.8v-1.6c-.1,0-.1-4.1-.1-4.1,0-.9-.1-1.6-.3-2.2-.2-.6-.5-1-1-1.3s-1-.4-1.7-.4-1.2,0-1.6.4-.8.7-1.1,1.2l-1.1-.5c.3-.5.6-.9,1-1.3.4-.3.8-.6,1.3-.7.5-.2,1-.2,1.5-.2.9,0,1.7.2,2.4.6.6.4,1.1,1,1.4,1.7.3.8.5,1.7.5,2.9v5.7h-1.2v-.2Z"></path>
      <path class="st1" d="M153.6,6.4v-1.2h6.5v1.2h-6.5ZM158.6,16.1c-1,0-1.7-.3-2.3-.8s-.8-1.2-.8-2.2V1.9h1.3v11.2c0,.6.2,1,.5,1.3s.8.5,1.4.5.3,0,.5,0,.4-.2.7-.4l.5,1.1c-.4.2-.7.4-1,.4h-.8,0Z"></path>
      <path class="st1" d="M162.9,2.5c-.2,0-.4,0-.6-.3s-.3-.4-.3-.6,0-.4.3-.6c.2-.2.4-.2.6-.2s.4,0,.6.2c.2.2.2.4.2.6s0,.4-.2.6c-.2.2-.4.3-.6.3ZM162.3,15.8V5.2h1.3v10.6h-1.3Z"></path>
      <path class="st1" d="M171.1,16.1c-1,0-1.9-.2-2.7-.7s-1.4-1.1-1.8-2c-.4-.8-.7-1.8-.7-2.9s.2-2,.7-2.9c.4-.8,1-1.5,1.8-2s1.7-.7,2.7-.7,1.9.2,2.7.7,1.4,1.1,1.8,2c.4.8.7,1.8.7,2.9s-.2,2-.7,2.9c-.4.8-1,1.5-1.8,2s-1.7.7-2.7.7ZM171.1,14.9c.8,0,1.4-.2,2-.6.6-.4,1-.9,1.4-1.5.3-.7.5-1.4.5-2.3s-.2-1.6-.5-2.3-.8-1.2-1.4-1.5c-.6-.4-1.3-.6-2-.6s-1.4.2-2,.6-1,.9-1.4,1.5c-.3.7-.5,1.4-.5,2.3s.2,1.6.5,2.3.8,1.2,1.4,1.5c.6.4,1.3.6,2,.6Z"></path>
      <path class="st1" d="M178.7,15.8V5.2h1.2v10.5h-1.3.1ZM186.3,10.4c0-1.2-.1-2.1-.4-2.7-.3-.6-.7-1-1.1-1.2s-1-.3-1.6-.3c-1,0-1.8.4-2.4,1.1-.6.7-.8,1.8-.8,3.1h-.8c0-1.1.2-2.1.5-2.9.3-.8.8-1.4,1.4-1.9.6-.4,1.4-.6,2.3-.6s1.5.2,2.2.5c.6.3,1.1.9,1.5,1.6.4.7.5,1.7.5,2.9v.5h-1.3,0ZM186.3,15.8v-5.4h1.3v5.4h-1.3Z"></path>
    </g>
    <g>
      <path class="st0" d="M22.4,10.3l-9.2,4.2c-.3.1-.6.1-.9,0L3,10.3c-.2,0-.4,0-.4.3v1.9c0,.2,0,.3.3.4l9.5,4.3c.3.1.6.1.9,0l9.3-4.2c.2,0,.3-.2.3-.4v-1.9c0-.2-.2-.3-.4-.3h-.1Z"></path>
      <path class="st0" d="M25.3,5.6l-3.8-1.7-8.4,3.8c-.3.1-.6.1-.9,0l-4.9-2.2c-.1,0-.1-.2,0-.3l1.3-.6h.3l3.3,1.5c.3,0,.6,0,.9,0l6.6-3L13.1,0c-.3-.1-.6-.1-.9,0L.2,5.6c0,0-.2.2-.2.4v1.1c0,.2,0,.3.2.4l12.2,5.5c.3.1.6.1.9,0l12.1-5.5c.1,0,.2-.2.2-.4v-1.1c0-.2,0-.3-.2-.4h-.1Z"></path>
    </g>
  </g>
  <path class="st1" d="M190.1,12.4c-1,0-1.8.8-1.8,1.8s.8,1.8,1.8,1.8,1.8-.8,1.8-1.8-.8-1.8-1.8-1.8M190.1,15.7c-.8,0-1.5-.7-1.5-1.5s.7-1.5,1.5-1.5,1.5.7,1.5,1.5-.7,1.5-1.5,1.5M190.2,14.5h-.3v.6h-.3v-1.6h.6c.2,0,.3,0,.4.1.1,0,.2.2.2.4v.3s-.1.1-.2.2l.4.7h-.4l-.3-.6M189.9,14.2h.5v-.4h-.5v.5h0Z"></path>
</svg>
