<?xml version="1.0" encoding="UTF-8"?>
<svg xmlns="http://www.w3.org/2000/svg" id="Layer_1" data-name="Layer 1" viewBox="0 0 163 100">
  <defs>
    <style> .cls-1 { fill: #000; } .cls-1, .cls-2, .cls-3 { stroke-width: 0px; } .cls-2 { fill: #fff; } .cls-3 { fill: #ee2d24; } </style>
  </defs>
  <path class="cls-3" d="M66.84,29.61c.39-.86.74-1.66,1.1-2.46.52-1.15,1.04-2.31,1.55-3.47.12-.26.24-.4.54-.28.44.16.91.26,1.32.46,1.89.91,3.82,1.03,5.82.39.81-.26,1.62-.5,2.43-.76,1.48-.48,2.93-.45,4.38.12,1.47.58,2.94,1.23,4.56,1.05.87-.1,1.73-.33,2.57-.57.93-.26,1.83-.67,2.77-.87,1.63-.33,3.2.03,4.75.55.23.08.46.15.68.26,1.66.85,3.28.67,4.9-.13.19-.09.38-.17.57-.25,0,0,.03.01.08.03-.05.14-.09.28-.15.41-1.01,2.23-2.03,4.45-3.02,6.68-.14.31-.33.5-.65.47-.82-.08-1.65-.14-2.45-.32-.67-.15-1.32-.44-1.95-.71-1.77-.75-3.53-.74-5.33-.11-1.13.39-2.28.72-3.44,1-.97.24-1.92.08-2.85-.29-.95-.38-1.89-.82-2.87-1.05-1.77-.42-3.47,0-5.11.74-1.45.65-2.95.92-4.51.48-.58-.17-1.12-.46-1.68-.69-1.26-.52-2.54-.92-4.01-.68Z"></path>
  <path class="cls-3" d="M62.57,39.28c.78-1.79,1.56-3.58,2.34-5.38.21-.48.46-.94.61-1.43.17-.52.52-.68,1.01-.72,1.02-.1,2.01.04,2.97.38.69.24,1.38.47,2.05.75,1.58.66,3.14.52,4.72-.03,1.01-.35,2.02-.74,3.06-.98,1.52-.36,2.99-.03,4.33.68,1.7.91,3.41.92,5.19.39,1.21-.36,2.42-.73,3.66-1.01,1.23-.28,2.42-.1,3.6.43,1.02.45,2.11.77,3.19,1.08.35.1.75.02,1.18.02-.03.12-.05.21-.09.29-.8,1.77-1.6,3.54-2.38,5.31-.15.35-.36.43-.68.32-.72-.24-1.44-.51-2.17-.73-2.04-.63-4.04-.52-5.98.37-1.72.79-3.48.67-5.25.24-1.08-.26-2.15-.53-3.23-.8-1.25-.32-2.47-.19-3.69.18-1.22.37-2.46.72-3.71.99-1.04.22-2.07,0-3.06-.37-1.25-.47-2.5-.92-3.88-.91-1.33,0-2.58.28-3.79.92Z"></path>
  <path class="cls-1" d="M40.9,43.06c-.09.83-.17,1.6-.25,2.37-.37.13-.53.04-.56-.35-.1-1.22-.44-1.59-1.65-1.92-.75-.21-1.5-.25-2.25.03-1.21.45-1.9,1.64-1.68,2.9.14.78.63,1.29,1.37,1.49.89.23,1.8.36,2.7.53.32.06.65.11.97.19,1.75.45,2.45,1.56,2.1,3.34-.41,2.1-1.85,3.13-3.78,3.61-1.46.36-2.89.19-4.29-.33-.31-.12-.42-.27-.38-.61.07-.74.09-1.48.14-2.26h.55c0,.29.02.55,0,.81-.06.65.24,1.06.81,1.31,1.22.53,2.47.69,3.74.2,1.37-.53,2.02-1.74,1.74-3.16-.18-.91-.92-1.48-2.15-1.66-.76-.11-1.51-.2-2.27-.28-2.74-.3-3.14-2.49-2.36-4.55.58-1.53,1.9-2.24,3.49-2.43,1.42-.17,2.74.24,4.05.78Z"></path>
  <path class="cls-1" d="M84.2,46.77c1.04,0,2.08,0,3.12,0,.1,0,.26.13.26.21,0,.1-.11.27-.2.29-.72.16-1.04.71-1.28,1.32-.81,2.03-1.61,4.06-2.41,6.09-.11.28-.19.52-.59.52-.39,0-.49-.21-.61-.5-.73-1.87-1.48-3.74-2.25-5.69-.11.17-.19.26-.24.38-.79,1.79-1.59,3.58-2.36,5.38-.14.33-.32.42-.66.43-.37,0-.41-.22-.49-.48-.58-1.94-1.17-3.88-1.76-5.82-.24-.77-.46-1.56-1.48-1.66-.08,0-.14-.24-.26-.44h4.29c.07.24.13.46-.26.48-.16,0-.31.04-.46.07-.55.11-.72.36-.56.88.47,1.56.96,3.11,1.44,4.67.02.06.06.12.14.26.12-.24.21-.41.29-.58.8-1.82,1.6-3.65,2.41-5.47.07-.17.25-.29.38-.43.12.15.28.28.35.45.73,1.83,1.45,3.68,2.18,5.51.07.19.16.37.28.62.08-.14.13-.2.16-.27.54-1.44,1.1-2.88,1.61-4.34.32-.92.15-1.16-.79-1.38-.15-.04-.26-.21-.39-.32.04-.06.09-.12.13-.19Z"></path>
  <path class="cls-1" d="M63.48,70.09c-.1.49-.17.9-.59,1.09-2.7,1.23-5.41,1.34-8.05-.13-2.5-1.39-3.36-3.92-3.07-6.35.35-2.87,2.15-4.85,4.9-5.54,1.89-.48,3.75-.2,5.6.26.35.09.7.19,1.08.29-.11.83-.21,1.63-.33,2.43-.01.09-.18.22-.27.22-.08,0-.16-.16-.23-.26-.02-.02-.01-.07,0-.1.17-1.13-.49-1.62-1.43-1.96-1.25-.44-2.51-.56-3.78-.24-2.04.51-3.45,2.26-3.63,4.46-.09,1.1-.02,2.18.36,3.23,1.07,2.97,3.86,3.96,6.3,3.71,1-.1,1.92-.43,2.78-.95.08-.05.17-.08.36-.16Z"></path>
  <path class="cls-1" d="M106.84,46.63v1.62c.5-.39.92-.67,1.3-1.01.84-.76,1.79-.81,2.76-.39,1.02.44,1.42,1.35,1.46,2.4.04,1.2.01,2.4.02,3.59,0,.26.02.52.04.78.04.58.33.92.93,1.01.38.06.38.09.33.48h-2.76c0-.2,0-.42,0-.64-.03-1.67.02-3.34-.11-4.99-.12-1.49-1.27-2.11-2.67-1.61-.79.28-1.16.89-1.19,1.67-.04,1.32-.03,2.64,0,3.96.02.75.32,1.06,1.08,1.15.31.04.46.12.34.46h-4.38c-.11-.26-.08-.41.3-.48.94-.18,1.12-.41,1.13-1.37.01-1.41.01-2.81.01-4.22,0-.88-.22-1.13-1.08-1.29-.12-.02-.23-.05-.45-.11.08-.17.12-.42.22-.45.87-.21,1.76-.37,2.72-.57Z"></path>
  <path class="cls-1" d="M64.28,55.1h-9.1c.16-.21.24-.44.4-.51.41-.2.59-.53.63-.94.05-.48.08-.97.08-1.45,0-2.47,0-4.93,0-7.4,0-.17,0-.35,0-.52-.04-.98-.17-1.1-1.15-1.24-.26-.04-.71.08-.54-.53.27.02.56.05.85.05,1.25,0,2.5-.03,3.75-.03.16,0,.32.13.48.2-.15.1-.29.21-.45.29-.07.04-.17.03-.26.04-.8.09-1,.3-1,1.09,0,3.16,0,6.32-.01,9.48,0,.52.18.73.68.71,1.49-.06,2.98-.12,4.47-.18.35-.01.52-.21.6-.54.1-.44.24-.87.34-1.31.07-.33.24-.43.6-.28-.11.98-.23,1.97-.35,3.07Z"></path>
  <path class="cls-1" d="M124.08,50.89c-.14,1.54.57,2.86,1.77,3.36,1.36.56,2.6.22,3.79-.6.05.07.09.13.14.2-.17.25-.29.57-.52.73-1.18.78-2.48,1.06-3.87.74-1.73-.39-2.82-1.66-2.96-3.44-.04-.57-.06-1.15.01-1.71.31-2.51,3.2-4.22,5.56-3.3,1.72.66,2.1,2.19,1.97,3.57,0,.1-.26.25-.41.25-1.56.08-3.12.14-4.67.21-.26.01-.51,0-.8,0ZM123.94,50.31c1.22,0,2.28,0,3.34,0,1.28,0,1.31-.04,1.07-1.32-.2-1.09-.87-1.73-1.9-1.83-.97-.09-1.8.44-2.15,1.46-.17.48-.22,1-.36,1.69Z"></path>
  <path class="cls-1" d="M73.42,71.66c.13-.11.24-.29.38-.33.95-.25,1.15-.44,1.15-1.42.02-3.02,0-6.04.01-9.05,0-.51-.27-.81-.72-.96-.23-.08-.47-.11-.86-.21.18-.2.27-.41.41-.44.88-.2,1.76-.36,2.66-.54,0,.88,0,1.76,0,2.63,0,2.86-.02,5.72.03,8.58.02,1.15.26,1.32,1.44,1.45,0,.13.01.27.02.42h-4.39s-.09-.09-.14-.13Z"></path>
  <path class="cls-1" d="M83.36,71.79h-4.58c-.1-.28-.05-.42.32-.48.91-.16,1.07-.33,1.13-1.26.05-.8.04-1.6.04-2.39,0-2.17,0-4.34,0-6.51,0-.89-.2-1.12-1.05-1.35-.16-.04-.28-.21-.42-.32.14-.09.27-.24.42-.28.83-.18,1.66-.33,2.59-.5,0,.25,0,.48,0,.71-.03,3.25-.06,6.49-.09,9.74,0,.26,0,.52.02.78.07.79.14,1.33,1.22,1.43.11.01.21.22.4.43Z"></path>
  <path class="cls-1" d="M43.81,48.08c-.43.03-.79.06-1.15.09-.03-.04-.07-.08-.1-.11.11-.12.21-.31.35-.34.94-.23,1.12-.88,1-1.72-.05-.36-.07-.72-.1-1.09,0-.12-.03-.32.03-.35.49-.25.99-.46,1.49-.68.04.12.13.25.13.37-.05.97-.12,1.93-.19,2.97h2.42c.14.82.1.87-.63.87-.55,0-1.11,0-1.7,0-.03.15-.07.28-.07.41,0,1.4,0,2.81,0,4.22,0,.09,0,.17.02.26.1,1.07.77,1.47,1.78,1.06.15-.06.35,0,.61,0-.57.82-1.11,1.34-2.07,1.27-1.15-.08-1.8-.66-1.81-1.83-.01-1.58,0-3.16,0-4.74,0-.19,0-.38,0-.65Z"></path>
  <path class="cls-1" d="M91.29,46.63v1.61c.46-.4.81-.7,1.16-.99.55-.46,1.16-.74,1.92-.61.29.05.43.15.4.47-.05.58-.08,1.17-.13,1.91-.23-.17-.39-.25-.49-.37-.71-.83-1.89-.76-2.37.21-.26.52-.37,1.16-.4,1.75-.05.95,0,1.91.03,2.86.03.8.29,1.09,1.09,1.18.33.04.44.14.34.46h-4.38c-.13-.27-.07-.41.29-.48.93-.18,1.12-.43,1.13-1.38.02-1.42,0-2.85,0-4.27,0-.79-.25-1.08-1.04-1.22-.1-.02-.23-.01-.3-.07-.08-.06-.14-.19-.14-.29,0-.07.09-.2.16-.21.87-.19,1.75-.36,2.71-.55Z"></path>
  <path class="cls-1" d="M121.3,54.2c-.17.22-.29.52-.52.63-1.19.58-2.43.8-3.73.39-1.81-.57-2.95-2.35-2.72-4.3.06-.53.19-1.06.33-1.57.19-.66.62-1.14,1.19-1.52,1.2-.79,2.43-1.43,3.93-1.19.1.02.21.02.31.04,1.11.23,1.15.29,1.05,1.4-.04.43-.07.86-.11,1.28-.41.15-.49-.03-.51-.35-.07-.99-.34-1.28-1.29-1.46-1.79-.33-3.31.33-3.35,2.52-.01.72.04,1.47.24,2.15.55,1.87,2.37,2.74,4.21,2.1.27-.09.53-.2.8-.3.05.06.1.11.15.17Z"></path>
  <path class="cls-1" d="M50.97,54.16c0,.56-.47,1.01-1.04,1-.54,0-1.02-.51-1.01-1.05.01-.54.52-1.02,1.05-1,.56.02,1,.49.99,1.05Z"></path>
  <path class="cls-1" d="M101.18,64.04c-.72,0-1.43.02-2.14,0-.23,0-.48-.08-.67-.2-1.53-.97-4.19-.56-5.33.86-.96,1.18-.98,3.42,1.09,4.13.11.04.21.09.36.15-.43.35-.85.66-1.22,1.02-.6.57-.46,1.29.28,1.63.14.06.27.13.52.24-.47.26-.87.42-1.18.68-.29.24-.6.54-.72.88-.48,1.33.12,2.58,1.53,3.07,1.7.59,3.42.56,5.03-.33.91-.5,1.59-1.23,1.91-2.25.59-1.88-.4-3.22-2.35-3.17-.87.02-1.74.06-2.6.07-.29,0-.6-.04-.87-.13-.48-.16-.61-.65-.3-1.05.31-.38.64-.72,1.22-.64.23.03.48-.04.72-.09,1.5-.31,2.64-1.35,2.83-2.64.07-.44-.03-.91-.05-1.41.34,0,.69,0,1.03,0,.63,0,.76-.11.91-.82ZM95.07,72.02c.47,0,.94,0,1.41,0h0c.42.01.83,0,1.25.01,1.44.03,1.88.75,1.58,2.19-.23,1.13-1.37,2.01-2.69,2.1-.61.04-1.27,0-1.84-.19-1.32-.45-1.85-1.99-1.18-3.21.32-.57.79-.91,1.47-.91ZM96.17,68.43c-1.21.1-2.06-.57-2.24-1.75-.03-.17-.03-.35-.04-.52-.06-1.38.52-2.13,1.75-2.24,1.14-.11,1.99.64,2.16,1.92.02.17.02.35.03.46.03,1.22-.64,2.06-1.66,2.14Z"></path>
  <path class="cls-1" d="M68.93,63.28c-2.86.06-4.55,1.88-4.49,4.84.05,2.33,1.75,4.05,3.96,4.01,2.81-.05,4.8-2.04,4.74-4.77-.04-2.37-1.87-4.12-4.22-4.07ZM71.2,69.84c-.27.88-.81,1.55-1.78,1.68-.96.13-1.78-.21-2.38-.98-.63-.81-.89-1.77-.93-2.76-.03-.75.03-1.53.21-2.26.23-.98.93-1.55,1.95-1.69,1.02-.14,1.8.25,2.34,1.1.62.98.84,2.07.91,3.23-.1.56-.15,1.13-.32,1.67Z"></path>
  <path class="cls-1" d="M73.3,54.67c-.66-.15-.85-.34-.86-1.02-.01-.61,0-1.21,0-1.82-.02-.97-.01-1.94-.1-2.91-.14-1.43-.95-2.16-2.36-2.3-1.06-.1-1.97.24-2.87.74-.5.28-.79.61-.65,1.19.04.16.15.3.23.44.12-.11.27-.21.36-.34.19-.28.29-.68.55-.86,1.29-.93,3.21,0,3.37,1.59.04.38-.04.54-.46.62-1.1.23-2.22.43-3.26.82-1.19.44-1.61,1.49-1.48,2.74.17,1.69,2.24,2.42,3.37,1.37.52-.49,1.15-.87,1.81-1.36v1.53h2.63l.14-.13c-.13-.1-.24-.27-.39-.3ZM70.94,52.79s0,.07-.02.1c-.19.6-1.76,1.62-2.39,1.54-.57-.08-1.05-.32-1.22-.91-.21-.72-.09-1.41.43-1.99.11-.13.25-.27.41-.32.89-.29,1.79-.56,2.79-.87,0,.93,0,1.68,0,2.44Z"></path>
  <path class="cls-1" d="M87.22,63.38c-2.48.65-3.75,2.63-3.34,5.21.31,1.92,1.25,3.01,2.95,3.4,1.39.32,2.69.03,3.87-.74.23-.15.35-.47.56-.77-.97.26-1.79.6-2.63.68-.92.08-1.78-.27-2.39-1.03-.58-.72-.76-1.58-.76-2.57.32,0,.58,0,.83,0,1.58-.06,3.15-.13,4.73-.2.24,0,.37-.07.4-.35.26-2.47-1.82-4.26-4.22-3.63ZM88.62,66.98c-.76,0-1.52,0-2.28-.03-.27,0-.54-.05-.84-.08,0-.94.16-1.77.79-2.44.58-.62,1.32-.71,2.11-.5.79.22,1.18.81,1.37,1.55.36,1.38.25,1.51-1.14,1.5Z"></path>
  <path class="cls-2" d="M123.94,50.31c.14-.69.19-1.21.36-1.69.35-1.02,1.18-1.55,2.15-1.46,1.03.1,1.7.74,1.9,1.83.24,1.28.21,1.32-1.07,1.32-1.06,0-2.11,0-3.34,0Z"></path>
  <path class="cls-1" d="M100.9,46.81c-2.1-.74-4.75.61-5.31,2.76-.18.69-.2,1.44-.16,2.16.1,1.88,1.22,3.2,2.99,3.58,1.37.3,2.66.03,3.83-.73.24-.15.37-.48.58-.76-.97.25-1.8.58-2.66.66-.91.09-1.75-.27-2.35-1.01-.59-.73-.79-1.59-.76-2.58.25,0,.47,0,.69,0,1.61-.06,3.22-.12,4.83-.21.14,0,.38-.16.39-.27.16-1.6-.42-3.01-2.08-3.6ZM101.18,50.27c-1.36.02-2.72.02-4.08.02-.05-.07-.1-.13-.14-.2.15-.58.25-1.18.47-1.72.36-.85,1.12-1.27,1.99-1.21.94.07,1.57.55,1.84,1.49.12.41.15.85.18,1.28,0,.12-.16.35-.25.35Z"></path>
  <path class="cls-1" d="M103.74,67.56c1.59-.06,3.19-.14,4.78-.19.37-.01.45-.19.47-.51.13-2.19-1.41-3.76-3.61-3.56-2.15.2-4.4,1.74-3.97,5.12.26,2.03,1.21,3.16,2.96,3.56,1.39.32,2.69.04,3.87-.73.24-.15.36-.47.54-.72l-.13-.22c-1.19.8-2.43,1.16-3.78.61-1.19-.49-1.92-1.8-1.82-3.37.25,0,.47,0,.69,0ZM103.02,66.48c.07-.34.1-.69.2-1.02.33-1.09,1.14-1.69,2.14-1.63,1.06.06,1.72.65,1.95,1.82.08.4.08.82.12,1.27-1.43,0-2.75,0-4.07,0-.29,0-.4-.16-.35-.44Z"></path>
</svg>
