<?xml version="1.0" encoding="UTF-8"?>
<svg xmlns="http://www.w3.org/2000/svg" xmlns:xlink="http://www.w3.org/1999/xlink" id="Layer_1" data-name="Layer 1" viewBox="0 0 163 100">
  <defs>
    <style> .cls-1 { fill: none; } .cls-2 { fill: #00b259; } .cls-3, .cls-4 { fill: #010101; } .cls-5 { fill: #0778ae; } .cls-6 { fill: #0078ae; } .cls-4 { stroke: #010101; stroke-miterlimit: 10; stroke-width: .5px; } .cls-7 { clip-path: url(#clippath); } </style>
    <clipPath id="clippath">
      <rect class="cls-1" x="7.93" y="38.25" width="54.32" height="23.5"></rect>
    </clipPath>
  </defs>
  <g id="Layer_1-2" data-name="Layer 1">
    <g>
      <g>
        <path class="cls-5" d="M43.46,56.92c-.17,0-.27-.02-.33-.06.06.04.17.06.33.06h0Z"></path>
        <path class="cls-5" d="M44.13,56.65c-.04.06-.1.1-.17.15s-.15.06-.23.08c.08,0,.17-.04.23-.08.06-.04.12-.08.17-.15h0Z"></path>
        <path class="cls-5" d="M44.88,53.43l-.25,1.64c0,.08-.02.15-.04.23,0-.06.02-.15.04-.23l.25-1.64h0Z"></path>
        <path class="cls-5" d="M44.71,44.2c0-.08.04-.17.06-.23.04-.19.12-.4.25-.6-.1.23-.19.42-.25.6,0,.06-.04.15-.06.23h0Z"></path>
        <path class="cls-5" d="M46.02,42.89c.06,0,.1.02.15.04h.04-.04s-.08-.02-.15-.04h0Z"></path>
        <path class="cls-5" d="M45.15,43.14c.06-.06.1-.1.19-.15.06-.04.15-.06.23-.08-.08,0-.17.04-.23.08s-.12.08-.19.15h0Z"></path>
        <path class="cls-5" d="M45.57,42.89c.08,0,.19-.02.27-.02h0c-.1,0-.19,0-.27.02h0Z"></path>
        <path class="cls-5" d="M47.08,60.65c-.25.12-.52.25-.81.35.29-.1.56-.23.81-.35h0Z"></path>
        <path class="cls-5" d="M46.33,43.16s.02.06.04.08v.04-.04s-.02-.06-.04-.08h0Z"></path>
        <path class="cls-5" d="M48.06,38.38c.08,0,.17.02.25.04-.08,0-.17-.02-.25-.04h0Z"></path>
        <path class="cls-5" d="M42.9,61.52c.77,0,1.48-.06,2.12-.19-.64.12-1.37.19-2.12.19h0Z"></path>
        <path class="cls-5" d="M44.44,38.42c.33-.06.67-.1,1.02-.12-.35.02-.69.06-1.02.12h0Z"></path>
        <path class="cls-5" d="M42.97,55.24v.04-.04l1.64-10.52v-.06.06l-1.64,10.52h0Z"></path>
        <polygon class="cls-5" points="60.25 38.67 60.25 38.67 58.83 47.65 60.25 38.67 60.25 38.67"></polygon>
        <path class="cls-5" d="M48.98,59.17c.12-.15.23-.27.33-.44.1-.15.21-.29.29-.44-.08.15-.19.29-.29.44s-.21.29-.33.44h0Z"></path>
        <polygon class="cls-5" points="50.91 58.46 50.45 61.29 50.45 61.29 50.91 58.46 50.91 58.46 50.91 58.46"></polygon>
        <polygon class="cls-5" points="53.53 41.72 53.53 41.72 54.03 38.67 53.53 41.72 53.53 41.72"></polygon>
        <polygon class="cls-5" points="52.49 48.42 52.16 50.56 52.16 50.56 52.49 48.42 52.49 48.42 52.49 48.42"></polygon>
        <path class="cls-5" d="M50.78,39.37c-.33-.25-.73-.46-1.19-.64-.1-.04-.21-.06-.33-.1.1.04.23.06.33.1.46.17.85.37,1.19.64h0Z"></path>
        <path class="cls-5" d="M37.85,59.73c.31.37.69.71,1.14.98-.46-.27-.83-.58-1.14-.98h0Z"></path>
        <path class="cls-5" d="M40.53,40.35h0c-.29.31-.56.64-.79,1.02h0c.25-.35.5-.71.79-1.02h0Z"></path>
        <g class="cls-7">
          <g>
            <path class="cls-5" d="M45.02,61.33c.21-.04.44-.08.64-.15s.42-.12.6-.19c-.19.06-.4.12-.6.19-.21.06-.42.1-.64.15h0Z"></path>
            <path class="cls-6" d="M35.54,57.01c-.06-.52-.06-1.1-.04-1.73h0c.02-.56.1-1.14.19-1.75l1.23-7.78c.21-1.31.52-2.47.94-3.45.44-1.04,1.04-1.98,1.79-2.77.17-.17.33-.31.5-.48l.08-.42h-7.15l-.83,4.66h1.5l-.71,3.87h-6.84l.69-3.87h1.48l.83-4.66h-8.36l-.83,4.66h1.31l-1.71,9.82c-.42,2.31-1.71,3.37-3.49,3.37s-2.41-.77-2.41-2.37.04-.64.1-.98l1.71-9.82h1.31l.83-4.66h-8.4l-.83,4.66h1.54l-1.85,10.42c-.12.67-.19,1.27-.19,1.85,0,3.81,2.41,6.22,7.24,6.22s2.37-.17,3.41-.48h6.24l.83-4.66h-1.52c.44-.89.77-1.87.96-2.91l.23-1.27h6.84l-.73,4.18h-1.5l-.83,4.66h8.19l.06-.33c-.29-.29-.56-.6-.77-.96-.54-.85-.87-1.87-1-2.99h0l-.02-.04Z"></path>
          </g>
        </g>
        <path class="cls-2" d="M45.13,51.79l-.25,1.64-.25,1.64c0,.08-.02.15-.04.23-.02.15-.04.27-.06.37,0,.06-.02.1-.04.15-.02.08-.04.19-.08.29s-.08.21-.12.31c-.04.08-.08.15-.12.21-.04.06-.1.1-.17.15s-.15.06-.23.08c-.08,0-.17.02-.27.02h0c-.17,0-.27-.02-.33-.06-.06-.04-.1-.08-.12-.1-.02-.04-.04-.06-.06-.1,0-.04-.04-.08-.04-.12-.02-.08-.04-.19-.02-.29,0-.31.04-.62.08-.96v-.04l1.64-10.52v-.06c.02-.17.06-.31.08-.44,0-.08.04-.17.06-.23.04-.19.12-.4.25-.6.04-.08.08-.17.15-.21.06-.06.1-.1.19-.15.06-.04.15-.06.23-.08.08,0,.19-.02.27-.02h.19c.06,0,.1.02.15.04h.04s.04.04.06.04c.04.06.06.12.08.19,0,.02.02.06.04.08v.89c0,.1-.02.23-.06.37l-.46,2.68h5.59l.85-5.43c-.15-.54-.35-1.06-.67-1.52-.23-.33-.5-.62-.85-.87-.33-.25-.73-.46-1.19-.64-.1-.04-.21-.06-.33-.1-.29-.1-.62-.17-.98-.23-.08,0-.17-.02-.25-.04-.52-.08-1.06-.1-1.66-.1s-.62,0-.94.04c-.35.02-.69.06-1.02.12-.52.08-1,.21-1.43.35-.98.35-1.83.87-2.47,1.58-.29.31-.56.64-.79,1.02h0c-.29.44-.54.89-.75,1.39-.37.89-.67,1.95-.85,3.16l-1.23,7.78c-.08.56-.15,1.1-.19,1.62,0,.56,0,1.08.04,1.56.1.94.37,1.77.81,2.47.08.12.19.25.29.37.31.37.69.71,1.14.98.21.12.42.21.64.31.44.17.94.31,1.48.4.27.04.56.08.85.1.29.02.6.04.94.04.77,0,1.48-.06,2.12-.19.21-.04.44-.08.64-.15s.42-.12.6-.19c.29-.1.56-.23.81-.35.25-.12.5-.27.71-.42.29-.21.56-.44.81-.69.12-.12.25-.25.35-.4.12-.15.23-.27.33-.44.1-.15.21-.29.29-.44.04-.08.08-.15.12-.23l.98-6.28h-5.59v-.02Z"></path>
        <polygon class="cls-2" points="57.42 56.65 57.42 56.65 58.83 47.65 60.25 38.67 54.03 38.67 53.53 41.72 52.49 48.42 52.16 50.56 50.91 58.46 50.45 61.29 61.52 61.29 62.24 56.65 57.42 56.65 57.42 56.65"></polygon>
      </g>
      <g>
        <path class="cls-4" d="M69.58,45.55c0,.62.12.92.33,1.16.27.31.67.46,1.06.46s1.02-.23,1.31-.73c.17-.31.27-.75.27-1.25v-4.3c0-.69-.17-.85-.48-.87-.23-.02-.33-.04-.33-.19s.08-.19.23-.19.33.04.73.04.67-.04.81-.04.17.04.17.19-.17.15-.4.21c-.25.06-.33.17-.33.77v4.24c0,.69-.12,1.23-.4,1.64-.4.6-1.02.83-1.81.83s-1.19-.12-1.64-.48c-.4-.31-.62-.79-.62-1.48v-5.07c0-.37-.04-.46-.27-.48-.27-.04-.35-.08-.35-.21s.1-.15.25-.15c.33,0,.64.04.98.04.52,0,.79-.04,1.04-.04s.33,0,.33.17-.12.17-.4.19c-.27.04-.48.08-.48.67v4.89-.02Z"></path>
        <path class="cls-4" d="M74.58,43.03c0-.35-.06-.4-.33-.44-.23-.02-.27-.04-.27-.15s.1-.12.4-.23c.46-.17.73-.33.89-.46.1-.08.17-.12.23-.12s.08.1.08.21v.48c0,.19.02.21.06.21.1,0,.29-.19.56-.4.27-.19.62-.42,1.08-.42s.75.12,1,.37.4.6.42,1.08v3.35c0,.4.15.48.37.52.23.02.31.06.31.17s-.08.15-.23.15-.35-.04-.96-.04-.73.04-.89.04-.21-.04-.21-.17.08-.12.19-.15c.27-.06.4-.12.4-.42v-3.33c0-.27-.08-.52-.21-.67-.17-.21-.4-.31-.69-.31s-.58.1-.79.29-.35.44-.35.69v3.31c0,.25.08.33.33.4.31.06.37.06.37.17s-.08.15-.19.15-.25-.04-1.04-.04-.75.04-.92.04-.23-.06-.23-.17.08-.17.19-.19c.37-.04.46-.17.46-.6v-3.39l-.04.06Z"></path>
        <path class="cls-4" d="M80.31,43.03c0-.31-.08-.4-.46-.48-.12-.02-.17-.08-.17-.15s.1-.15.4-.25c.4-.12.69-.27.94-.4.1-.08.19-.12.23-.12.08,0,.1.04.1.19v4.58c0,.37,0,.52.42.6.23.06.29.08.29.19s-.04.15-.21.15c-.23,0-.46-.04-1.02-.04s-.81.04-1.02.04-.19-.04-.19-.15.04-.17.23-.19c.42-.08.46-.12.46-.56v-3.43.02ZM80.83,40.93c-.31,0-.58-.25-.58-.73s.27-.73.58-.73.6.25.6.73-.27.73-.6.73h0Z"></path>
        <path class="cls-4" d="M84.33,41.95c0,.08-.1.1-.27.17-.27.06-.33.12-.33.25s.02.15.1.48c.17.62.35,1.27.54,1.95.21.79.25.83.31.83s.12-.04.4-.94c.17-.58.33-1.1.5-1.64.1-.33.15-.54.15-.62,0-.25-.17-.31-.33-.31-.17-.02-.33-.02-.33-.19s.08-.17.25-.17.4.04.6.04.44-.04.6-.04.23.02.23.12-.08.17-.25.21c-.27.08-.33.37-.52.89-.46,1.29-.85,2.6-1.27,3.91-.1.29-.1.52-.4.52s-.29-.31-.37-.54c-.4-1.33-.87-2.95-1.12-3.83-.23-.75-.25-.92-.56-.98s-.23-.06-.23-.17.12-.17.27-.17.54.04.92.04.56-.04.81-.04.27.04.27.17h0l.04.04Z"></path>
        <path class="cls-4" d="M88.05,44.34c-.23,0-.31.08-.31.27,0,1.25.54,2.23,1.37,2.23s.89-.27,1.06-.69c.1-.23.12-.37.23-.37s.12.04.12.17-.06.4-.17.6c-.25.52-.81.92-1.5.92-1.37,0-2.2-1.16-2.2-2.79s1.02-3.04,2.18-3.04,1.68.73,1.68,1.95,0,.73-.35.73h-2.12v.02ZM87.78,43.68c0,.23.04.29.46.29s.44-.02.6-.04c.37-.04.6-.15.67-.25.1-.1.12-.23.12-.52,0-.73-.33-1.16-.81-1.16s-1.06.81-1.06,1.66h0l.02.02Z"></path>
        <path class="cls-4" d="M91.67,43.16c0-.4-.12-.48-.44-.48-.1,0-.17-.04-.17-.12s.08-.17.25-.21c.25-.08.54-.19.83-.44.17-.17.23-.25.33-.25s.1.06.1.19v.6c0,.23,0,.27.04.27.1,0,.17-.25.35-.54.17-.25.42-.54.85-.54s.73.37.73.92-.17.79-.58.79-.44-.23-.48-.48c-.02-.19-.04-.4-.19-.4-.23,0-.37.23-.48.52s-.17.58-.17.79v2.52c0,.54.04.69.44.75.31.06.44.08.44.19s-.08.15-.29.15-.31-.04-1.08-.04-.79.04-.94.04-.25-.04-.25-.15.1-.15.31-.19c.29-.04.35-.1.35-.58v-3.31h.02Z"></path>
        <path class="cls-4" d="M95.04,43.2c0-1.08.92-1.54,1.85-1.54s.75.06.98.19c.04.02.06.1.08.29v.77c0,.21-.04.31-.15.31-.15,0-.17-.21-.33-.62-.12-.33-.31-.58-.69-.58s-.81.33-.81.75.58.89,1.14,1.27c.58.37,1.12.81,1.12,1.66s-.87,1.81-2,1.81-.6-.04-.81-.1c-.1-.02-.19-.04-.25-.08-.08-.04-.12-.1-.15-.37v-.69c0-.56.04-.69.15-.69s.17.17.35.69c.19.5.48.89.92.89s.83-.37.83-.89-.56-1.06-1.12-1.43c-.58-.35-1.12-.75-1.12-1.62h0Z"></path>
        <path class="cls-4" d="M99.32,43.03c0-.31-.08-.4-.46-.48-.12-.02-.17-.08-.17-.15s.1-.15.4-.25c.4-.12.69-.27.94-.4.1-.08.19-.12.23-.12.08,0,.1.04.1.19v4.58c0,.37,0,.52.42.6.23.06.29.08.29.19s-.04.15-.21.15c-.23,0-.46-.04-1.02-.04s-.81.04-1.02.04-.19-.04-.19-.15.04-.17.23-.19c.42-.08.46-.12.46-.56v-3.43.02ZM99.84,40.93c-.31,0-.58-.25-.58-.73s.27-.73.58-.73.6.25.6.73-.27.73-.6.73h0Z"></path>
        <path class="cls-4" d="M103.02,46.28c0,.46.15.54.37.54s.35-.17.46-.33.17-.31.27-.31.12.04.12.12c0,.17-.25,1.16-1.23,1.16s-.58-.08-.75-.27c-.19-.19-.27-.48-.27-.87v-3.91c0-.1-.06-.17-.12-.19h-.27c-.1,0-.19-.02-.19-.17s.08-.17.23-.31c.33-.31.62-.62,1.04-1.37.12-.23.15-.29.23-.29s.12.02.12.27v1.19c0,.19.06.27.25.27h.54c.21,0,.27.04.27.21s-.04.25-.29.25h-.58c-.15,0-.19.04-.19.25v3.74l-.02.02Z"></path>
        <path class="cls-4" d="M105.25,49.29c0-.29.17-.46.44-.48.21-.04.4-.02.52-.12.08-.04.21-.29.31-.58.1-.27.19-.6.19-.75,0-.27-.04-.42-.23-.96-.33-1.04-.73-2.23-1.21-3.62-.21-.6-.33-.67-.46-.69-.19-.02-.25-.04-.25-.19s.08-.12.21-.12c.31,0,.64.04.98.04s.67-.04.79-.04.23.04.23.17-.12.1-.33.17c-.19.04-.23.15-.23.27s.08.37.23.94c.23.77.71,2.35.81,2.35s.62-1.81.81-2.43c.17-.6.19-.71.19-.83,0-.19-.12-.25-.42-.27-.1-.02-.23-.02-.23-.15s.08-.19.19-.19.37.04.73.04.31-.04.52-.04.19.04.19.17-.08.12-.21.15c-.17.04-.31.25-.48.83-.6,1.77-1.12,3.29-1.56,4.76-.19.67-.31,1.12-.4,1.5-.17.64-.27.81-.71.81s-.6-.17-.6-.67h0l-.02-.06Z"></path>
        <path class="cls-4" d="M113.11,47.48c-1.33,0-2.23-1.33-2.23-2.91s.89-2.91,2.25-2.91,2.25,1.33,2.25,2.91-.89,2.91-2.25,2.91h-.02ZM113.17,47.13c.77,0,1.1-1.25,1.1-2.45s-.37-2.68-1.16-2.68-1.12,1.25-1.12,2.45.4,2.68,1.16,2.68h.02Z"></path>
        <path class="cls-4" d="M117.37,46.32c0,.52.12.62.54.71.19.04.33.06.33.19s-.06.15-.25.15c-.27,0-.67-.04-1.1-.04s-.75.04-.94.04-.31-.04-.31-.15.06-.17.25-.19c.37-.04.48-.17.48-.67v-3.85c0-.19-.12-.23-.29-.25-.12-.02-.27-.04-.27-.19s.12-.19.29-.27c.15-.08.27-.21.29-.5.02-.87.19-1.52.5-1.95.31-.44.75-.64,1.25-.64s.96.19.96.67-.04.37-.08.58c-.04.23-.17.4-.31.4s-.31-.31-.4-.6c-.1-.33-.19-.69-.44-.69s-.5.46-.5,1.85,0,.48,0,.69c0,.19.06.23.17.23h.81c.15,0,.17.02.17.23s0,.23-.17.23h-.64c-.27,0-.33.08-.33.31v3.72Z"></path>
        <path class="cls-4" d="M123.11,43.43c-.08,0-.1.04-.1.17v2.91c0,.33.12.44.31.48.17.04.33.08.33.23s-.04.17-.25.17-.33-.04-.96-.04-.83.04-1.08.04-.21-.04-.21-.21.06-.15.19-.17c.46-.08.5-.19.5-.54v-6.03c0-.33-.1-.37-.25-.44-.33-.1-.42-.04-.42-.19s.04-.17.25-.17.62.04.98.04.69-.04.94-.04.27.04.27.17-.12.17-.35.23c-.17.02-.29.1-.29.33v2.52c0,.1.02.15.12.15h2.16c.1,0,.1-.04.1-.17v-2.41c0-.31-.1-.4-.31-.46-.23-.04-.37-.04-.37-.17s.1-.19.27-.19c.25,0,.5.04.98.04s.81-.04,1.04-.04.21.04.21.15c0,.15-.17.21-.44.25-.17.02-.27.12-.27.27v6.2c0,.27.08.44.23.48.23.1.46.08.46.25s-.04.15-.23.15-.52-.04-1-.04-.69.04-.87.04-.33-.04-.33-.19.08-.12.33-.19c.25-.04.31-.17.31-.48v-2.91c0-.1-.02-.15-.1-.15h-2.18l.04-.04Z"></path>
        <path class="cls-4" d="M129.83,47.48c-1.33,0-2.23-1.33-2.23-2.91s.89-2.91,2.25-2.91,2.25,1.33,2.25,2.91-.89,2.91-2.25,2.91h-.02ZM129.87,47.13c.77,0,1.1-1.25,1.1-2.45s-.37-2.68-1.16-2.68-1.12,1.25-1.12,2.45.4,2.68,1.16,2.68h.02Z"></path>
        <path class="cls-4" d="M134.13,45.88c0,.6.35.92.89.92s.67-.15.89-.4c.15-.17.25-.37.25-.6v-3.2c0-.33-.04-.44-.31-.48s-.37-.02-.37-.19.08-.17.25-.17.37.02.58.02.44-.02.67-.02.21.04.21.27v4.08c0,.4.08.52.31.54s.29.06.29.17-.08.12-.33.23c-.52.19-.83.31-1.02.4-.08.02-.1.04-.17.04s-.06-.04-.06-.15v-.56c0-.12-.04-.17-.08-.17s-.1.04-.17.1c-.25.23-.69.69-1.43.69s-.75-.08-1-.31-.44-.54-.44-1.04v-3.58c0-.25-.1-.33-.33-.35-.23-.02-.29-.08-.29-.19s.08-.19.23-.19c.23,0,.46.02.69.02s.4-.02.54-.02.19.12.19.44v3.68l.02.02Z"></path>
        <path class="cls-4" d="M138.19,43.2c0-1.08.92-1.54,1.85-1.54s.75.06.98.19c.04.02.06.1.08.29v.77c0,.21-.04.31-.15.31-.15,0-.17-.21-.33-.62-.12-.33-.31-.58-.69-.58s-.81.33-.81.75.58.89,1.14,1.27c.58.37,1.12.81,1.12,1.66s-.87,1.81-2,1.81-.6-.04-.81-.1c-.1-.02-.19-.04-.25-.08-.08-.04-.12-.1-.15-.37v-.69c0-.56.04-.69.15-.69s.17.17.35.69c.19.5.48.89.92.89s.83-.37.83-.89-.56-1.06-1.12-1.43c-.58-.35-1.12-.75-1.12-1.62h0Z"></path>
        <path class="cls-4" d="M143.39,46.28c0,.46.15.54.37.54s.35-.17.46-.33.17-.31.27-.31.12.04.12.12c0,.17-.25,1.16-1.23,1.16s-.58-.08-.75-.27c-.19-.19-.27-.48-.27-.87v-3.91c0-.1-.06-.17-.12-.19h-.27c-.1,0-.19-.02-.19-.17s.08-.17.23-.31c.33-.31.62-.62,1.04-1.37.12-.23.15-.29.23-.29s.12.02.12.27v1.19c0,.19.06.27.25.27h.54c.21,0,.27.04.27.21s-.04.25-.29.25h-.58c-.15,0-.19.04-.19.25v3.74l-.02.02Z"></path>
        <path class="cls-4" d="M146.99,47.48c-1.33,0-2.23-1.33-2.23-2.91s.89-2.91,2.25-2.91,2.25,1.33,2.25,2.91-.89,2.91-2.25,2.91h-.02ZM147.05,47.13c.77,0,1.1-1.25,1.1-2.45s-.37-2.68-1.16-2.68-1.12,1.25-1.12,2.45.4,2.68,1.16,2.68h.02Z"></path>
        <path class="cls-4" d="M150.27,43.03c0-.35-.06-.4-.33-.44-.23-.02-.27-.04-.27-.15s.1-.12.4-.23c.46-.17.73-.33.89-.46.1-.08.17-.12.23-.12s.08.1.08.21v.48c0,.19.02.21.06.21.1,0,.29-.19.56-.4.27-.19.62-.42,1.08-.42s.75.12,1,.37.4.6.42,1.08v3.35c0,.4.15.48.37.52.23.02.31.06.31.17s-.08.15-.23.15-.35-.04-.96-.04-.73.04-.89.04-.21-.04-.21-.17.08-.12.19-.15c.27-.06.4-.12.4-.42v-3.33c0-.27-.08-.52-.21-.67-.17-.21-.4-.31-.69-.31s-.58.1-.79.29-.35.44-.35.69v3.31c0,.25.08.33.33.4.31.06.37.06.37.17s-.08.15-.19.15-.25-.04-1.04-.04-.75.04-.92.04-.23-.06-.23-.17.08-.17.19-.19c.37-.04.46-.17.46-.6v-3.39l-.04.06Z"></path>
      </g>
      <g>
        <path class="cls-3" d="M74.72,60.61c0,.33-.08.42-.29.54-.35.27-1.29.5-2.08.5-2.41,0-4.1-2-4.1-5.05s1.58-5.09,4.1-5.09,1.75.29,1.98.44c.15.08.19.12.19.5v1.41c0,.71-.04.67-.19.67-.21,0-.29-.17-.52-.87-.35-1.04-.87-1.71-1.66-1.71s-2.16,1.23-2.16,4.47,1.21,4.82,2.33,4.82,1.46-.94,1.68-1.95c.17-.75.19-1.02.4-1.02s.27.02.27.48v1.89l.06-.02Z"></path>
        <path class="cls-3" d="M76.43,52.04c0-.29-.08-.4-.44-.46-.29-.06-.37-.08-.37-.21s.06-.17.29-.23c.64-.21,1.08-.35,1.37-.48.23-.1.31-.15.4-.15s.1.08.1.31v9.67c0,.4.17.42.67.54.19.04.33.08.33.23s-.1.21-.25.21-.33-.06-1.41-.06-1.16.06-1.35.06-.25-.04-.25-.21.15-.21.27-.23c.56-.08.62-.23.62-.62v-8.36l.02-.02Z"></path>
        <path class="cls-3" d="M81.13,57.61c-.29,0-.42.1-.42.35,0,1.58.71,2.83,1.83,2.83s1.19-.35,1.41-.87c.12-.27.17-.48.29-.48s.17.04.17.21-.08.5-.23.77c-.33.67-1.08,1.16-2,1.16-1.83,0-2.93-1.48-2.93-3.54s1.37-3.85,2.93-3.85,2.25.94,2.25,2.47,0,.94-.48.94h-2.83,0ZM80.75,56.78c0,.29.04.37.62.37s.56-.02.79-.06c.48-.06.81-.19.89-.31.12-.12.19-.29.19-.64,0-.92-.44-1.48-1.08-1.48s-1.41,1.02-1.41,2.1h0v.02Z"></path>
        <path class="cls-3" d="M88.97,55.59c0-.73-.21-.96-.62-.96-.75,0-1.1.56-1.33,1.33-.1.33-.31.6-.54.77-.19.15-.42.21-.64.21s-.46-.1-.46-.42c0-.92,1.37-2.33,3.37-2.33s1,.08,1.25.27.35.5.35.92v4.64c0,.4.15.56.42.56s.42-.15.48-.29c.08-.15.1-.31.23-.31s.12.08.12.27c0,.33-.46,1.29-1.46,1.29s-.87-.52-1-.83c-.04-.12-.1-.21-.19-.21-.12,0-.37.29-.77.56-.35.27-.85.52-1.5.52s-1.29-.5-1.29-1.41.44-1.31,1.81-2.16c.56-.33.94-.56,1.19-.75.42-.25.56-.4.56-.75v-.94l.02.02ZM86.87,59.94c0,.56.31.87.77.87s.62-.19.94-.46c.29-.27.42-.48.42-.87v-1.71c0-.17-.04-.21-.1-.21s-.17,0-.37.17c-.33.21-.67.48-.92.75-.44.44-.71.92-.71,1.46h-.02Z"></path>
        <path class="cls-3" d="M92.77,56.11c0-.5-.17-.62-.58-.62-.12,0-.21-.04-.21-.17s.1-.21.33-.27c.33-.1.73-.23,1.12-.54.21-.21.31-.31.44-.31s.12.08.12.23v.77c0,.31,0,.35.06.35.15,0,.23-.33.48-.69.23-.33.56-.69,1.14-.69s.98.46.98,1.16-.23,1-.77,1-.58-.27-.62-.6c-.04-.25-.06-.5-.25-.5-.29,0-.5.29-.64.64-.15.37-.23.73-.23,1v3.18c0,.69.06.87.58.94.42.08.58.1.58.25s-.1.19-.4.19-.42-.06-1.46-.06-1.06.06-1.23.06-.33-.04-.33-.19.15-.19.42-.25c.4-.04.48-.12.48-.73v-4.18l-.02.02Z"></path>
        <path class="cls-3" d="M101.36,53.08c0-.71-.1-.87-.4-.92-.5-.08-.71-.08-.71-.27s.1-.21.37-.21.71.06,1.6.06,1.21-.06,1.43-.06.31.06.31.19c0,.21-.25.19-.64.27-.42.08-.48.21-.48.64v7.2c0,.75.23,1.04,1,1.04s1.66-.73,2-1.79c.15-.5.19-.62.33-.62s.19.02.19.58v1.75c0,.48-.06.5-.23.5-.75,0-1.12-.06-3.31-.06s-1.75.06-2.16.06-.37-.06-.37-.21.15-.23.56-.29c.42-.04.56-.23.56-.69v-7.22l-.06.04Z"></path>
        <path class="cls-3" d="M110.68,55.59c0-.73-.21-.96-.62-.96-.75,0-1.1.56-1.33,1.33-.1.33-.31.6-.54.77-.19.15-.42.21-.64.21s-.46-.1-.46-.42c0-.92,1.37-2.33,3.37-2.33s1,.08,1.25.27.35.5.35.92v4.64c0,.4.15.56.42.56s.42-.15.48-.29c.08-.15.1-.31.23-.31s.12.08.12.27c0,.33-.46,1.29-1.46,1.29s-.87-.52-1-.83c-.04-.12-.1-.21-.19-.21-.12,0-.37.29-.77.56-.35.27-.85.52-1.5.52s-1.29-.5-1.29-1.41.44-1.31,1.81-2.16c.56-.33.94-.56,1.19-.75.42-.25.56-.4.56-.75v-.94l.02.02ZM108.56,59.94c0,.56.31.87.77.87s.62-.19.94-.46c.29-.27.42-.48.42-.87v-1.71c0-.17-.04-.21-.1-.21s-.17,0-.37.17c-.33.21-.67.48-.92.75-.44.44-.71.92-.71,1.46h-.02Z"></path>
        <path class="cls-3" d="M114.34,52.04c0-.29-.08-.4-.44-.46-.29-.06-.37-.08-.37-.21s.06-.15.27-.23c.48-.15,1-.31,1.43-.5.19-.08.29-.15.37-.15s.1.06.1.27v6.34c0,.4.04.42.1.42s.19-.08.33-.27c.44-.52.96-1.08,1.39-1.64.19-.25.21-.37.21-.48,0-.21-.08-.33-.56-.4-.19,0-.29-.08-.29-.23s.1-.19.35-.19.75.06,1.14.06.79-.06,1.16-.06.27.04.27.17-.1.19-.35.25c-.29.06-.62.31-.94.56-.37.29-.73.62-1.06.98-.19.19-.23.27-.23.35s.04.21.17.4c.44.71,1.04,1.85,1.71,3.08.48.75.58.85.79.89.27.06.4.08.4.23s-.08.19-.27.19-.64-.06-1.16-.06-.92.06-1.1.06-.21-.04-.23-.15c0-.15.1-.19.25-.21.1-.04.23-.08.23-.21,0-.08-.1-.31-.27-.6-.35-.69-.85-1.5-1.14-2-.19-.31-.27-.46-.33-.46s-.54.35-.54.75v1.83c0,.54.23.6.44.62.21.04.44.06.44.25s-.1.17-.21.17c-.27,0-.87-.06-1.31-.06s-1.02.06-1.27.06-.25-.08-.25-.21.1-.19.37-.23c.42-.06.42-.21.42-.48v-8.51l-.02.04Z"></path>
        <path class="cls-3" d="M122.09,57.61c-.29,0-.42.1-.42.35,0,1.58.71,2.83,1.83,2.83s1.19-.35,1.41-.87c.12-.27.17-.48.29-.48s.17.04.17.21-.08.5-.23.77c-.33.67-1.08,1.16-2,1.16-1.83,0-2.93-1.48-2.93-3.54s1.37-3.85,2.93-3.85,2.25.94,2.25,2.47,0,.94-.48.94h-2.83ZM121.72,56.78c0,.29.04.37.62.37s.56-.02.79-.06c.48-.06.81-.19.89-.31.12-.12.19-.29.19-.64,0-.92-.44-1.48-1.08-1.48s-1.41,1.02-1.41,2.1h0v.02Z"></path>
      </g>
    </g>
  </g>
</svg>
